<svg xmlns="http://www.w3.org/2000/svg" viewBox="0 0 156.12 137.2"><defs><style>.cls-1,.cls-2,.cls-3{fill:none;stroke:#414042;stroke-miterlimit:10;}.cls-2{stroke-dasharray:3;}.cls-3{stroke-dasharray:4;}.cls-4{fill:#a7a9ac;}.cls-5{fill:#58595b;}.cls-6{fill:#fff;}.cls-7{fill:#e7643e;}.cls-8{fill:#f5ab35;}.cls-9{fill:#fffffe;}.cls-10{fill:#47cbd7;}.cls-11{fill:#f5c1b2;}.cls-12{fill:#ec8365;}.cls-13{fill:#f1a28b;}</style></defs><title>coding</title><g id="Layer_2" data-name="Layer 2"><g id="Coding"><g id="_Group_" data-name="&lt;Group&gt;"><line id="_Path_" data-name="&lt;Path&gt;" class="cls-1" x1="132.36" y1="102.13" x2="150.88" y2="102.13"/><g id="_Group_2" data-name="&lt;Group&gt;"><line id="_Path_2" data-name="&lt;Path&gt;" class="cls-1" x1="32.68" y1="12.05" x2="58.44" y2="12.05"/><line id="_Path_3" data-name="&lt;Path&gt;" class="cls-1" x1="61.62" y1="12.05" x2="59.51" y2="12.05"/><line id="_Path_4" data-name="&lt;Path&gt;" class="cls-1" x1="64.79" y1="12.05" x2="62.9" y2="12.05"/></g><g id="_Group_3" data-name="&lt;Group&gt;"><line id="_Path_5" data-name="&lt;Path&gt;" class="cls-1" x1="22.3" y1="64.8" x2="7.22" y2="64.8"/><line id="_Path_6" data-name="&lt;Path&gt;" class="cls-1" x1="5.36" y1="64.8" x2="6.59" y2="64.8"/><line id="_Path_7" data-name="&lt;Path&gt;" class="cls-1" x1="3.5" y1="64.8" x2="4.61" y2="64.8"/></g><g id="_Group_4" data-name="&lt;Group&gt;"><g id="_Group_5" data-name="&lt;Group&gt;"><path id="_Path_8" data-name="&lt;Path&gt;" class="cls-2" d="M9.28,113.76a8.78,8.78,0,0,1,0-17.56"/><path id="_Path_9" data-name="&lt;Path&gt;" class="cls-1" d="M9.28,96.2a8.78,8.78,0,0,1,0,17.56"/></g><g id="_Group_6" data-name="&lt;Group&gt;"><line id="_Path_10" data-name="&lt;Path&gt;" class="cls-1" x1="7.64" y1="104.98" x2="10.93" y2="104.98"/><line id="_Path_11" data-name="&lt;Path&gt;" class="cls-1" x1="9.28" y1="106.63" x2="9.28" y2="103.34"/></g></g><g id="_Group_7" data-name="&lt;Group&gt;"><g id="_Group_8" data-name="&lt;Group&gt;"><path id="_Path_12" data-name="&lt;Path&gt;" class="cls-2" d="M145.18,56.91a7.88,7.88,0,0,1,0-15.76"/><path id="_Path_13" data-name="&lt;Path&gt;" class="cls-1" d="M145.18,41.16a7.88,7.88,0,1,1,0,15.76"/></g><g id="_Group_9" data-name="&lt;Group&gt;"><line id="_Path_14" data-name="&lt;Path&gt;" class="cls-1" x1="143.71" y1="49.04" x2="146.66" y2="49.04"/><line id="_Path_15" data-name="&lt;Path&gt;" class="cls-1" x1="145.18" y1="50.51" x2="145.18" y2="47.56"/></g></g><g id="_Group_10" data-name="&lt;Group&gt;"><g id="_Group_11" data-name="&lt;Group&gt;"><path id="_Path_16" data-name="&lt;Path&gt;" class="cls-3" d="M88.73,40.8a14.66,14.66,0,0,1,0-29.31"/><path id="_Path_17" data-name="&lt;Path&gt;" class="cls-1" d="M88.73,11.49a14.66,14.66,0,1,1,0,29.31"/></g><g id="_Group_12" data-name="&lt;Group&gt;"><path id="_Compound_Path_" data-name="&lt;Compound Path&gt;" class="cls-1" d="M95.11,25H94a5.35,5.35,0,0,0-.69-1.67l.82-.82a.75.75,0,0,0,0-1.06l-.61-.61a.75.75,0,0,0-1.06,0l-.82.82a5.31,5.31,0,0,0-1.67-.69V19.77a.75.75,0,0,0-.75-.75H88.3a.75.75,0,0,0-.75.75v1.16a5.36,5.36,0,0,0-1.65.68l-.82-.82a.75.75,0,0,0-1.06,0l-.62.61a.75.75,0,0,0,0,1.06l.81.83a5.33,5.33,0,0,0-.7,1.67H82.37a.75.75,0,0,0-.75.75v.87a.75.75,0,0,0,.75.75h1.16A5.29,5.29,0,0,0,84.2,29l-.82.82a.75.75,0,0,0,0,1.06l.61.61a.75.75,0,0,0,1.06,0l.82-.82a5.35,5.35,0,0,0,1.67.7v1.16a.75.75,0,0,0,.75.75h.87a.75.75,0,0,0,.75-.75V31.36a5.36,5.36,0,0,0,1.67-.69l.82.82a.76.76,0,0,0,1.06,0l.61-.61a.74.74,0,0,0,0-1.06L93.26,29A5.34,5.34,0,0,0,94,27.33h1.16a.75.75,0,0,0,.75-.75v-.87A.75.75,0,0,0,95.11,25Zm-6.38,3.55a2.38,2.38,0,1,1,2.38-2.38A2.38,2.38,0,0,1,88.74,28.52Z"/></g></g><g id="_Group_13" data-name="&lt;Group&gt;"><line id="_Path_18" data-name="&lt;Path&gt;" class="cls-1" x1="135.93" y1="95.81" x2="136.88" y2="95.81"/><line id="_Path_19" data-name="&lt;Path&gt;" class="cls-1" x1="137.66" y1="95.81" x2="138.61" y2="95.81"/><line id="_Path_20" data-name="&lt;Path&gt;" class="cls-1" x1="139.38" y1="95.81" x2="140.33" y2="95.81"/><line id="_Path_21" data-name="&lt;Path&gt;" class="cls-1" x1="141.1" y1="95.81" x2="142.05" y2="95.81"/><line id="_Path_22" data-name="&lt;Path&gt;" class="cls-1" x1="142.82" y1="95.81" x2="143.77" y2="95.81"/><line id="_Path_23" data-name="&lt;Path&gt;" class="cls-1" x1="144.54" y1="95.81" x2="145.49" y2="95.81"/><line id="_Path_24" data-name="&lt;Path&gt;" class="cls-1" x1="146.26" y1="95.81" x2="147.21" y2="95.81"/><line id="_Path_25" data-name="&lt;Path&gt;" class="cls-1" x1="147.99" y1="95.81" x2="148.93" y2="95.81"/><line id="_Path_26" data-name="&lt;Path&gt;" class="cls-1" x1="149.71" y1="95.81" x2="150.66" y2="95.81"/><line id="_Path_27" data-name="&lt;Path&gt;" class="cls-1" x1="151.43" y1="95.81" x2="152.38" y2="95.81"/></g><polygon id="_Path_28" data-name="&lt;Path&gt;" class="cls-1" points="112.43 8.65 116.13 10.79 116.13 6.52 112.43 8.65 116.13 10.79 116.13 6.52 112.43 8.65"/><polygon id="_Path_29" data-name="&lt;Path&gt;" class="cls-1" points="50.82 33.03 54.51 35.17 54.51 30.9 50.82 33.03 54.51 35.17 54.51 30.9 50.82 33.03"/><polygon id="_Path_30" data-name="&lt;Path&gt;" class="cls-1" points="105.51 3.31 101.27 5.76 101.27 0.87 105.51 3.31 101.27 5.76 101.27 0.87 105.51 3.31"/><polygon id="_Path_31" data-name="&lt;Path&gt;" class="cls-1" points="150.25 63.65 146.02 66.09 146.02 61.2 150.25 63.65 146.02 66.09 146.02 61.2 150.25 63.65"/><g id="_Group_14" data-name="&lt;Group&gt;"><rect id="_Rectangle_" data-name="&lt;Rectangle&gt;" class="cls-4" x="22.37" y="57.87" width="112.7" height="77.16"/><rect id="_Rectangle_2" data-name="&lt;Rectangle&gt;" class="cls-5" x="29.04" y="64.8" width="99.36" height="63.31"/><polygon id="_Path_32" data-name="&lt;Path&gt;" class="cls-6" points="140.59 136.7 16.85 136.7 12.91 127.3 144.53 127.3 140.59 136.7"/><polygon id="_Path_33" data-name="&lt;Path&gt;" class="cls-1" points="140.59 136.7 16.85 136.7 12.91 127.3 144.53 127.3 140.59 136.7"/><line id="_Path_34" data-name="&lt;Path&gt;" class="cls-1" x1="70.63" y1="131.43" x2="86.81" y2="131.43"/><rect id="_Rectangle_3" data-name="&lt;Rectangle&gt;" class="cls-7" x="40.82" y="73.11" width="9.96" height="1.3"/><rect id="_Rectangle_4" data-name="&lt;Rectangle&gt;" class="cls-8" x="45.8" y="77.56" width="6.86" height="1.3"/><rect id="_Rectangle_5" data-name="&lt;Rectangle&gt;" class="cls-9" x="67.84" y="77.56" width="55.83" height="1.3"/><rect id="_Rectangle_6" data-name="&lt;Rectangle&gt;" class="cls-9" x="57.39" y="77.56" width="7.72" height="1.3" transform="translate(122.49 156.43) rotate(180)"/><rect id="_Rectangle_7" data-name="&lt;Rectangle&gt;" class="cls-7" x="48.14" y="81.28" width="13.67" height="1.3"/><rect id="_Rectangle_8" data-name="&lt;Rectangle&gt;" class="cls-9" x="53.68" y="86.53" width="17.35" height="1.3"/><rect id="_Rectangle_9" data-name="&lt;Rectangle&gt;" class="cls-9" x="40.82" y="91.47" width="18.96" height="1.3"/><rect id="_Rectangle_10" data-name="&lt;Rectangle&gt;" class="cls-10" x="61.81" y="91.47" width="13.7" height="1.3" transform="translate(137.32 184.25) rotate(180)"/><rect id="_Rectangle_11" data-name="&lt;Rectangle&gt;" class="cls-9" x="45.8" y="96.41" width="25.42" height="1.3"/><rect id="_Rectangle_12" data-name="&lt;Rectangle&gt;" class="cls-9" x="81.61" y="96.41" width="16.9" height="1.3" transform="translate(180.11 194.13) rotate(180)"/><rect id="_Rectangle_13" data-name="&lt;Rectangle&gt;" class="cls-7" x="72.3" y="96.41" width="7.98" height="1.3"/><rect id="_Rectangle_14" data-name="&lt;Rectangle&gt;" class="cls-9" x="54.25" y="101.35" width="22.24" height="1.3"/><rect id="_Rectangle_15" data-name="&lt;Rectangle&gt;" class="cls-8" x="48.14" y="101.35" width="4.66" height="1.3" transform="translate(100.94 204.01) rotate(180)"/><rect id="_Rectangle_16" data-name="&lt;Rectangle&gt;" class="cls-9" x="40.82" y="104.98" width="15.17" height="1.3"/><rect id="_Rectangle_17" data-name="&lt;Rectangle&gt;" class="cls-10" x="57.17" y="104.98" width="5.21" height="1.3"/><rect id="_Rectangle_18" data-name="&lt;Rectangle&gt;" class="cls-9" x="63.84" y="104.98" width="24.89" height="1.3"/><rect id="_Rectangle_19" data-name="&lt;Rectangle&gt;" class="cls-9" x="90.67" y="104.98" width="22.48" height="1.3" transform="translate(203.81 211.27) rotate(180)"/><rect id="_Rectangle_20" data-name="&lt;Rectangle&gt;" class="cls-7" x="45.8" y="109.92" width="7.87" height="1.3"/><rect id="_Rectangle_21" data-name="&lt;Rectangle&gt;" class="cls-6" x="56" y="109.92" width="18.69" height="1.3" transform="translate(130.68 221.15) rotate(180)"/><rect id="_Rectangle_22" data-name="&lt;Rectangle&gt;" class="cls-8" x="50.04" y="114.86" width="15.17" height="1.3"/><rect id="_Rectangle_23" data-name="&lt;Rectangle&gt;" class="cls-9" x="68.4" y="114.86" width="15.17" height="1.3"/><rect id="_Rectangle_24" data-name="&lt;Rectangle&gt;" class="cls-9" x="85.93" y="114.86" width="14.29" height="1.3"/><rect id="_Rectangle_25" data-name="&lt;Rectangle&gt;" class="cls-9" x="109.99" y="86.53" width="8.57" height="1.3" transform="translate(228.56 174.37) rotate(180)"/><rect id="_Rectangle_26" data-name="&lt;Rectangle&gt;" class="cls-9" x="72.56" y="86.53" width="35.53" height="1.3"/><rect id="_Rectangle_27" data-name="&lt;Rectangle&gt;" class="cls-9" x="53.68" y="73.11" width="40.39" height="1.3"/><rect id="_Rectangle_28" data-name="&lt;Rectangle&gt;" class="cls-6" x="34.07" y="71.17" width="2.1" height="2.1"/><rect id="_Rectangle_29" data-name="&lt;Rectangle&gt;" class="cls-6" x="34.07" y="76.69" width="2.1" height="2.1"/><rect id="_Rectangle_30" data-name="&lt;Rectangle&gt;" class="cls-6" x="34.07" y="82.22" width="2.1" height="2.1"/><rect id="_Rectangle_31" data-name="&lt;Rectangle&gt;" class="cls-6" x="34.07" y="87.75" width="2.1" height="2.1"/><rect id="_Rectangle_32" data-name="&lt;Rectangle&gt;" class="cls-6" x="34.07" y="93.27" width="2.1" height="2.1"/><rect id="_Rectangle_33" data-name="&lt;Rectangle&gt;" class="cls-6" x="34.07" y="98.8" width="2.1" height="2.1"/><rect id="_Rectangle_34" data-name="&lt;Rectangle&gt;" class="cls-6" x="34.07" y="104.33" width="2.1" height="2.1"/><rect id="_Rectangle_35" data-name="&lt;Rectangle&gt;" class="cls-6" x="34.07" y="109.85" width="2.1" height="2.1"/><rect id="_Rectangle_36" data-name="&lt;Rectangle&gt;" class="cls-6" x="34.07" y="115.38" width="2.1" height="2.1"/><rect id="_Rectangle_37" data-name="&lt;Rectangle&gt;" class="cls-6" x="34.07" y="120.91" width="2.1" height="2.1"/></g><g id="_Group_15" data-name="&lt;Group&gt;"><g id="_Group_16" data-name="&lt;Group&gt;"><polygon id="_Path_35" data-name="&lt;Path&gt;" class="cls-7" points="111.46 29.9 107.63 36.53 115.29 36.53 111.46 29.9"/><polygon id="_Path_36" data-name="&lt;Path&gt;" class="cls-7" points="134.44 29.9 130.61 36.53 138.27 36.53 134.44 29.9"/><polygon id="_Path_37" data-name="&lt;Path&gt;" class="cls-11" points="119.12 29.9 115.29 36.53 122.95 36.53 119.12 29.9"/><polygon id="_Path_38" data-name="&lt;Path&gt;" class="cls-12" points="111.46 29.9 115.29 36.53 119.12 29.9 111.46 29.9"/><polygon id="_Path_39" data-name="&lt;Path&gt;" class="cls-13" points="126.78 29.9 122.95 36.53 130.61 36.53 126.78 29.9"/><polygon id="_Path_40" data-name="&lt;Path&gt;" class="cls-12" points="115.29 36.53 122.95 53.95 122.95 36.53 115.29 36.53"/><polygon id="_Path_41" data-name="&lt;Path&gt;" class="cls-13" points="107.63 36.53 122.95 53.95 115.29 36.53 107.63 36.53"/><polygon id="_Path_42" data-name="&lt;Path&gt;" class="cls-11" points="138.27 36.53 122.95 53.95 130.61 36.53 138.27 36.53"/><polygon id="_Path_43" data-name="&lt;Path&gt;" class="cls-7" points="122.95 36.53 122.95 53.95 130.61 36.53 122.95 36.53"/><polygon id="_Path_44" data-name="&lt;Path&gt;" class="cls-12" points="119.12 29.9 122.95 36.53 126.78 29.9 119.12 29.9"/><polygon id="_Path_45" data-name="&lt;Path&gt;" class="cls-12" points="126.78 29.9 130.61 36.53 134.44 29.9 126.78 29.9"/></g><line id="_Path_46" data-name="&lt;Path&gt;" class="cls-1" x1="122.95" y1="22.63" x2="122.95" y2="24.01"/><line id="_Path_47" data-name="&lt;Path&gt;" class="cls-1" x1="118.21" y1="21.87" x2="118.92" y2="24.54"/><line id="_Path_48" data-name="&lt;Path&gt;" class="cls-1" x1="114.47" y1="24.9" x2="115.16" y2="26.09"/><line id="_Path_49" data-name="&lt;Path&gt;" class="cls-1" x1="109.98" y1="26.6" x2="111.93" y2="28.56"/><line id="_Path_50" data-name="&lt;Path&gt;" class="cls-1" x1="108.25" y1="31.08" x2="109.44" y2="31.78"/><line id="_Path_51" data-name="&lt;Path&gt;" class="cls-1" x1="137.82" y1="31.43" x2="136.61" y2="32.06"/><line id="_Path_52" data-name="&lt;Path&gt;" class="cls-1" x1="136.18" y1="26.87" x2="134.19" y2="28.79"/><line id="_Path_53" data-name="&lt;Path&gt;" class="cls-1" x1="131.72" y1="25.07" x2="131.01" y2="26.25"/><line id="_Path_54" data-name="&lt;Path&gt;" class="cls-1" x1="128.05" y1="21.98" x2="127.29" y2="24.62"/></g><g id="_Group_17" data-name="&lt;Group&gt;"><path id="_Path_55" data-name="&lt;Path&gt;" class="cls-8" d="M42.46,66.78H13.34V84.61H32.1l6.41,6.62a.26.26,0,0,0,.44-.18V84.61h3.52Z"/><path id="_Path_56" data-name="&lt;Path&gt;" class="cls-1" d="M13.34,84.61H32.1l6.41,6.62a.26.26,0,0,0,.44-.18V84.61h3.52"/><g id="_Group_18" data-name="&lt;Group&gt;"><path id="_Compound_Path_2" data-name="&lt;Compound Path&gt;" class="cls-6" d="M22.59,77.1a2.26,2.26,0,0,0,1.84-.89l1,1a3.7,3.7,0,0,1-5.36.31A3.38,3.38,0,0,1,19,75a3.41,3.41,0,0,1,1-2.55,3.52,3.52,0,0,1,2.55-1,3.62,3.62,0,0,1,2.82,1.28l-1,1.08a2.23,2.23,0,0,0-1.8-.9,2.1,2.1,0,0,0-1.48.56A2,2,0,0,0,20.61,75a2.07,2.07,0,0,0,.58,1.53A1.91,1.91,0,0,0,22.59,77.1Z"/><path id="_Compound_Path_3" data-name="&lt;Compound Path&gt;" class="cls-6" d="M28,77.38V75.61H26.25V74.41H28V72.64h1.35v1.77H31v1.21H29.32v1.77Z"/><path id="_Compound_Path_4" data-name="&lt;Compound Path&gt;" class="cls-6" d="M33.69,77.38V75.61H32V74.41h1.72V72.64H35v1.77h1.72v1.21H35v1.77Z"/></g></g><g id="_Group_19" data-name="&lt;Group&gt;"><path id="_Path_57" data-name="&lt;Path&gt;" class="cls-7" d="M43.49,39.89H76.07V59.83h-21l-7.22,7.45a.26.26,0,0,1-.44-.18V59.83H43.49Z"/><path id="_Path_58" data-name="&lt;Path&gt;" class="cls-1" d="M76.07,59.83h-21l-7.22,7.45a.26.26,0,0,1-.44-.18V59.83H43.49"/><g id="_Group_20" data-name="&lt;Group&gt;"><path id="_Compound_Path_5" data-name="&lt;Compound Path&gt;" class="cls-6" d="M52.21,47.15h1.28v5.72H52.21V50.63H49.94v2.25H48.66V47.15h1.28v2.39h2.28Z"/><path id="_Compound_Path_6" data-name="&lt;Compound Path&gt;" class="cls-6" d="M57.32,48.26v4.62H56V48.26H54.42V47.15h4.52v1.11Z"/><path id="_Compound_Path_7" data-name="&lt;Compound Path&gt;" class="cls-6" d="M65,49.27,63.45,52.4h-.76l-1.54-3.13v3.6H59.87V47.15H61.6l1.47,3.14,1.48-3.14h1.72v5.72H65Z"/><path id="_Compound_Path_8" data-name="&lt;Compound Path&gt;" class="cls-6" d="M67.68,52.88V47.15H69v4.58H71.4v1.14Z"/></g></g><g id="_Group_21" data-name="&lt;Group&gt;"><path id="_Path_59" data-name="&lt;Path&gt;" class="cls-8" d="M153.33,69.24H116.81V91.59h4.41v8.15a.29.29,0,0,0,.5.2l8.09-8.35h23.52Z"/><path id="_Path_60" data-name="&lt;Path&gt;" class="cls-1" d="M116.81,91.59h4.41v8.15a.29.29,0,0,0,.5.2l8.09-8.35h23.52"/><g id="_Group_22" data-name="&lt;Group&gt;"><path id="_Compound_Path_9" data-name="&lt;Compound Path&gt;" class="cls-6" d="M127.75,82.71a2.83,2.83,0,0,0,2.31-1.12l1.23,1.27a4.64,4.64,0,0,1-6.72.39,4.23,4.23,0,0,1-1.29-3.17,4.28,4.28,0,0,1,1.31-3.19,4.41,4.41,0,0,1,3.2-1.28,4.54,4.54,0,0,1,3.54,1.61l-1.19,1.35a2.79,2.79,0,0,0-2.26-1.13,2.64,2.64,0,0,0-1.85.71,2.46,2.46,0,0,0-.77,1.91A2.6,2.6,0,0,0,126,82,2.39,2.39,0,0,0,127.75,82.71Z"/><path id="_Compound_Path_10" data-name="&lt;Compound Path&gt;" class="cls-6" d="M134.81,77.53a.74.74,0,0,0-.28.6.68.68,0,0,0,.34.6,6.2,6.2,0,0,0,1.56.52,4.41,4.41,0,0,1,1.9.9,2.23,2.23,0,0,1,.68,1.76,2.32,2.32,0,0,1-.87,1.88,3.46,3.46,0,0,1-2.28.72A5.28,5.28,0,0,1,132.19,83l1.14-1.4a4.07,4.07,0,0,0,2.57,1.22,1.35,1.35,0,0,0,.83-.23A.73.73,0,0,0,137,82a.72.72,0,0,0-.32-.61,4.18,4.18,0,0,0-1.27-.46,5.5,5.5,0,0,1-2.19-.93,2.19,2.19,0,0,1-.7-1.8,2.22,2.22,0,0,1,.88-1.89,3.53,3.53,0,0,1,2.19-.66,5.28,5.28,0,0,1,1.72.3,4.6,4.6,0,0,1,1.5.84l-1,1.4a3.79,3.79,0,0,0-2.31-.85A1.16,1.16,0,0,0,134.81,77.53Z"/><path id="_Compound_Path_11" data-name="&lt;Compound Path&gt;" class="cls-6" d="M142.66,77.53a.74.74,0,0,0-.28.6.68.68,0,0,0,.34.6,6.2,6.2,0,0,0,1.56.52,4.41,4.41,0,0,1,1.9.9,2.23,2.23,0,0,1,.68,1.76,2.32,2.32,0,0,1-.87,1.88,3.46,3.46,0,0,1-2.28.72A5.28,5.28,0,0,1,140,83l1.14-1.4a4.07,4.07,0,0,0,2.57,1.22,1.35,1.35,0,0,0,.83-.23.73.73,0,0,0,.3-.61.72.72,0,0,0-.32-.61,4.18,4.18,0,0,0-1.27-.46,5.5,5.5,0,0,1-2.19-.93,2.19,2.19,0,0,1-.7-1.8,2.22,2.22,0,0,1,.88-1.89,3.54,3.54,0,0,1,2.19-.66,5.28,5.28,0,0,1,1.72.3,4.6,4.6,0,0,1,1.5.84l-1,1.4a3.79,3.79,0,0,0-2.31-.85A1.16,1.16,0,0,0,142.66,77.53Z"/></g></g><g id="_Group_23" data-name="&lt;Group&gt;"><path id="_Path_61" data-name="&lt;Path&gt;" class="cls-10" d="M114.08,51.86H86.36v17h17.85l6.38,6.59a.08.08,0,0,0,.14-.06V68.82h3.35Z"/><path id="_Path_62" data-name="&lt;Path&gt;" class="cls-1" d="M86.36,68.82h17.85l6.38,6.59a.08.08,0,0,0,.14-.06V68.82h3.35"/><g id="_Group_24" data-name="&lt;Group&gt;"><path id="_Compound_Path_12" data-name="&lt;Compound Path&gt;" class="cls-6" d="M95.6,57.22a2.14,2.14,0,0,1,.66,1.72,2,2,0,0,1-.68,1.7,3.29,3.29,0,0,1-2.07.54h-.83v1.75h-1.4V56.66h2.22A3.22,3.22,0,0,1,95.6,57.22Zm-1,2.47a1.21,1.21,0,0,0,.25-.83.87.87,0,0,0-.33-.77,1.8,1.8,0,0,0-1-.23h-.8V60h.94A1.25,1.25,0,0,0,94.57,59.69Z"/><path id="_Compound_Path_13" data-name="&lt;Compound Path&gt;" class="cls-6" d="M101.24,56.66h1.4v6.27h-1.4V60.46H98.75v2.47h-1.4V56.66h1.4v2.62h2.49Z"/><path id="_Compound_Path_14" data-name="&lt;Compound Path&gt;" class="cls-6" d="M108.51,57.22a2.14,2.14,0,0,1,.66,1.72,2,2,0,0,1-.68,1.7,3.29,3.29,0,0,1-2.07.54h-.83v1.75h-1.4V56.66h2.22A3.22,3.22,0,0,1,108.51,57.22Zm-1,2.47a1.21,1.21,0,0,0,.25-.83.87.87,0,0,0-.33-.77,1.8,1.8,0,0,0-1-.23h-.8V60h.94A1.25,1.25,0,0,0,107.48,59.69Z"/></g></g><g id="_Group_25" data-name="&lt;Group&gt;"><g id="_Group_26" data-name="&lt;Group&gt;"><circle id="_Path_63" data-name="&lt;Path&gt;" class="cls-10" cx="26.56" cy="37.91" r="11.82"/></g><g id="_Group_27" data-name="&lt;Group&gt;"><polygon id="_Path_64" data-name="&lt;Path&gt;" class="cls-6" points="25.1 43.31 20.48 38.68 22.39 36.77 25.1 39.47 31.09 33.48 33 35.4 25.1 43.31"/></g><line id="_Path_65" data-name="&lt;Path&gt;" class="cls-1" x1="26.8" y1="18.84" x2="26.8" y2="24.27"/><line id="_Path_66" data-name="&lt;Path&gt;" class="cls-1" x1="21.22" y1="22.6" x2="22.13" y2="25.09"/><line id="_Path_67" data-name="&lt;Path&gt;" class="cls-1" x1="14.53" y1="23.31" x2="18.03" y2="27.47"/><line id="_Path_68" data-name="&lt;Path&gt;" class="cls-1" x1="12.64" y1="29.75" x2="14.98" y2="31.1"/><line id="_Path_69" data-name="&lt;Path&gt;" class="cls-1" x1="8.01" y1="34.61" x2="13.36" y2="35.55"/><line id="_Path_70" data-name="&lt;Path&gt;" class="cls-1" x1="10.69" y1="40.77" x2="13.37" y2="40.29"/><line id="_Path_71" data-name="&lt;Path&gt;" class="cls-1" x1="10.29" y1="47.47" x2="14.99" y2="44.75"/><line id="_Path_72" data-name="&lt;Path&gt;" class="cls-1" x1="16.52" y1="50.19" x2="18.04" y2="48.38"/><line id="_Path_73" data-name="&lt;Path&gt;" class="cls-1" x1="20.3" y1="55.85" x2="22.15" y2="50.74"/><line id="_Path_74" data-name="&lt;Path&gt;" class="cls-1" x1="40.95" y1="29.74" x2="38.6" y2="31.06"/><line id="_Path_75" data-name="&lt;Path&gt;" class="cls-1" x1="39.02" y1="23.27" x2="35.54" y2="27.44"/><line id="_Path_76" data-name="&lt;Path&gt;" class="cls-1" x1="32.35" y1="22.54" x2="31.43" y2="25.08"/></g><g id="_Group_28" data-name="&lt;Group&gt;"><line id="_Path_77" data-name="&lt;Path&gt;" class="cls-1" x1="67.74" y1="11.97" x2="71.33" y2="11.97"/><line id="_Path_78" data-name="&lt;Path&gt;" class="cls-1" x1="69.54" y1="13.76" x2="69.54" y2="10.17"/></g><g id="_Group_29" data-name="&lt;Group&gt;"><line id="_Path_79" data-name="&lt;Path&gt;" class="cls-1" x1="3.1" y1="76.69" x2="6.69" y2="76.69"/><line id="_Path_80" data-name="&lt;Path&gt;" class="cls-1" x1="4.89" y1="78.49" x2="4.89" y2="74.9"/></g><g id="_Group_30" data-name="&lt;Group&gt;"><line id="_Path_81" data-name="&lt;Path&gt;" class="cls-1" x1="152.53" y1="31.43" x2="156.12" y2="31.43"/><line id="_Path_82" data-name="&lt;Path&gt;" class="cls-1" x1="154.33" y1="33.23" x2="154.33" y2="29.64"/></g><g id="_Group_31" data-name="&lt;Group&gt;"><line id="_Path_83" data-name="&lt;Path&gt;" class="cls-1" x1="5.84" y1="52.88" x2="9.43" y2="52.88"/><line id="_Path_84" data-name="&lt;Path&gt;" class="cls-1" x1="7.64" y1="54.67" x2="7.64" y2="51.08"/></g><line id="_Path_85" data-name="&lt;Path&gt;" class="cls-1" x1="1.47" y1="57.98" x2="19.99" y2="57.98"/><circle id="_Path_86" data-name="&lt;Path&gt;" class="cls-1" cx="66.27" cy="24.17" r="1.24"/><circle id="_Path_87" data-name="&lt;Path&gt;" class="cls-1" cx="139.65" cy="66.51" r="1.24"/><circle id="_Path_88" data-name="&lt;Path&gt;" class="cls-1" cx="7.22" cy="87.75" r="1.24"/></g></g></g></svg>