<svg xmlns="http://www.w3.org/2000/svg" viewBox="5498.801 2313.731 110.113 93.332"><defs><style>.a{fill:#c90077;}.b{fill:#f85eb9;}.c{fill:#ec008c;}.d{fill:#f18700;}.e{fill:#ffb85d;}.f{fill:#ffa834;}.g{fill:#009deb;}.h{fill:#00cdff;}</style></defs><g transform="translate(5498.802 2274.718)"><path class="a" d="M152.945,47.912c-20.55-11.864-53.76-11.865-74.177,0l-.084,29.595,37.21,21.483,46.794-13.652.084-29.595A38.528,38.528,0,0,0,152.945,47.912Z" transform="translate(-61.762)"/><path class="b" d="M298.579,116.8,298.5,146.4,251.7,160.048l.084-29.595Z" transform="translate(-197.57 -61.058)"/><path class="c" d="M153.251,47.912a38.53,38.53,0,0,1,9.826,7.831L116.283,69.4,79.074,47.912C99.492,36.047,132.7,36.048,153.251,47.912Z" transform="translate(-62.068 0)"/><g transform="translate(57.551 47.861)"><path class="d" d="M320.16,94.1c.052-4.783-1.831-9.575-5.651-13.947L267.715,93.806l-.112,39.46,37.21,21.483c10.142-5.894,15.217-13.606,15.24-21.331l.112-39.46C320.164,94.006,320.161,94.054,320.16,94.1Zm-.02.685c0-.078.007-.156.01-.234C320.147,94.631,320.144,94.709,320.14,94.787Zm-.045.669c.006-.065.01-.131.015-.2C320.105,95.325,320.1,95.391,320.1,95.456Zm-.07.662c0,.029-.008.057-.012.086C320.017,96.174,320.022,96.146,320.026,96.117Zm-.1.663c-.012.072-.025.145-.038.217C319.9,96.924,319.917,96.852,319.929,96.78Zm-.123.669c-.016.078-.032.156-.049.234Q319.783,97.567,319.806,97.45Zm-.154.694c-.017.069-.032.137-.05.205C319.62,98.28,319.636,98.212,319.652,98.144Zm-.228.862,0,.006Zm-.205.655c-.023.069-.047.137-.071.206C319.171,99.8,319.2,99.729,319.219,99.66Zm-.233.66c-.029.077-.058.154-.087.231C318.928,100.474,318.957,100.4,318.986,100.32Zm-.266.676c-.029.071-.058.142-.088.212C318.662,101.138,318.691,101.067,318.72,101Zm-.341.783-.035.077C318.356,101.83,318.367,101.8,318.379,101.779Zm-.348.719c-.032.064-.067.127-.1.191C317.964,102.625,318,102.562,318.031,102.5Zm-.342.645c-.041.075-.084.15-.126.226Zm-.377.657c-.042.071-.084.143-.128.214C317.228,103.942,317.27,103.871,317.312,103.8Zm-.448.725c-.026.04-.051.081-.077.121C316.814,104.606,316.838,104.565,316.864,104.525Zm-.5.746c-.04.057-.082.115-.122.172C316.284,105.385,316.325,105.328,316.365,105.271Zm-.451.625-.163.217C315.806,106.041,315.861,105.968,315.914,105.9Zm-.486.634c-.056.071-.111.141-.168.212C315.317,106.671,315.373,106.6,315.428,106.53Zm-.554.678c-.041.049-.081.1-.122.146C314.794,107.306,314.834,107.257,314.875,107.208Zm-9.092,7.569.262-.162Zm.842-.525.289-.186Zm.841-.55.259-.174Zm.942-.648.093-.065Zm.842-.612.216-.164Zm.729-.559.25-.2Zm.722-.581.231-.191Zm.771-.652.129-.111Zm.768-.688.17-.16Zm.619-.589.209-.206Zm1.364-1.414c-.044.049-.09.1-.134.146C314.132,108.055,314.178,108.006,314.222,107.958Zm-.56.6c-.066.069-.132.137-.2.206C313.53,108.7,313.6,108.628,313.663,108.559Z" transform="translate(-267.603 -80.155)"/><path class="e" d="M455.969,144.335l-.112,39.46c-.022,7.725-5.1,15.437-15.24,21.331l.112-39.46C450.872,159.772,455.948,152.06,455.969,144.335Z" transform="translate(-403.409 -130.532)"/><path class="f" d="M314.917,80.155c9.953,11.388,6.774,25.627-9.585,35.134l-37.21-21.483Z" transform="translate(-268.011 -80.155)"/></g><path class="g" d="M52.507,161.571,15.3,140.088C5.129,146,.053,153.736.058,161.482c0-.021,0-.039,0-.06L0,181.151c-.022,7.825,5.142,15.663,15.483,21.633,20.551,11.865,53.761,11.864,74.177,0l.056-19.73Z" transform="translate(0 -79.337)"/><path class="h" d="M89.922,183.053c-20.416,11.864-53.626,11.866-74.177,0s-20.658-31.1-.242-42.967l37.21,21.483Z" transform="translate(-0.205 -79.336)"/></g></svg>