<svg xmlns="http://www.w3.org/2000/svg" viewBox="2725.034 18.034 42.861 42.861">
  <defs>
    <style>
      .cls-1 {
        fill: #00cbff;
      }

      .cls-2 {
        fill: #009deb;
      }
    </style>
  </defs>
  <g id="potlogo1" transform="translate(2725.036 18.036)">
    <g id="Ebene_1" data-name="Ebene 1" transform="translate(-0.002 -0.002)">
      <path id="Path_1521" data-name="Path 1521" class="cls-1" d="M12.209,166.65a5.614,5.614,0,1,0,7.94,0,5.614,5.614,0,0,0-7.94,0Z" transform="translate(-8.661 -135.279)"/>
      <path id="Path_1522" data-name="Path 1522" class="cls-2" d="M4.193,18.794a3.83,3.83,0,0,1,.991-3.7l9.909-9.909a3.83,3.83,0,0,1,3.7-.991l9.271,2.485a6.981,6.981,0,0,1,1.277-3.526L18.176.159A4.728,4.728,0,0,0,13.61,1.384L1.384,13.61A4.728,4.728,0,0,0,.159,18.176l3.106,11.6a6.974,6.974,0,0,1,3.5-1.393Z" transform="translate(0.002 0.002)"/>
      <path id="Path_1523" data-name="Path 1523" class="cls-2" d="M95.554,71.736l2.654,9.909a3.83,3.83,0,0,1-.991,3.7l-9.909,9.909a3.83,3.83,0,0,1-3.7.991l-9.585-2.569a6.974,6.974,0,0,1-1.393,3.5l11.6,3.1a4.728,4.728,0,0,0,4.565-1.223l12.226-12.226a4.728,4.728,0,0,0,1.225-4.567L99.019,70.23A6.969,6.969,0,0,1,95.554,71.736Z" transform="translate(-59.544 -57.577)"/>
      <path id="Path_1524" data-name="Path 1524" class="cls-1" d="M165.039,10.61a5.614,5.614,0,1,0,7.94,0A5.614,5.614,0,0,0,165.039,10.61Z" transform="translate(-133.956 -7.352)"/>
      <path id="Path_1525" data-name="Path 1525" class="cls-1" d="M55.791,37.88A6.971,6.971,0,0,1,53.809,33.9l-9.08-2.432a3.483,3.483,0,0,0-3.36.9L32.36,41.372a3.483,3.483,0,0,0-.9,3.364l2.5,9.345a6.987,6.987,0,0,1,6.21,6.209l9.345,2.5a3.483,3.483,0,0,0,3.364-.9l9.008-9.008a3.483,3.483,0,0,0,.9-3.364l-2.576-9.616A6.974,6.974,0,0,1,55.791,37.88Z" transform="translate(-25.694 -25.697)"/>
    </g>
  </g>
</svg>
