<svg xmlns="http://www.w3.org/2000/svg" viewBox="4863.183 2323 180.897 84.04"><defs><style>.a{fill:#ff5023;}.b{fill:#f91;}.c{fill:#943ec7;}.d{fill:#ec008c;}.e{fill:#c90077;}.f{fill:#a258cb;}.g{fill:#009deb;}.h{fill:#00cdff;}.i{fill:#f18700;}.j{fill:#ffa834;}</style></defs><g transform="translate(4863.183 2185.929)"><path class="a" d="M90.489,237.4,73.327,227.49a1.013,1.013,0,0,1-.011-1.913,3.134,3.134,0,0,1,1.257-.376c.116,0,.232-.011.426-.024a10.734,10.734,0,0,0,4.521-1.286c3.034-1.763,3.018-4.622-.037-6.387a12.158,12.158,0,0,0-11.051.016,4.215,4.215,0,0,0-2.188,2.652c-.013.068-.024.135-.035.219a1.347,1.347,0,0,1-.673.731,3.649,3.649,0,0,1-3.271-.018l-17.227-9.87L28.055,221.1a3.641,3.641,0,0,1-3.3,0,1.33,1.33,0,0,1-.653-.729c-.009-.068-.02-.135-.044-.248a4.288,4.288,0,0,0-2.234-2.623,12.152,12.152,0,0,0-11.026,0,3.861,3.861,0,0,0-2.265,3.189v0c0-.006,0-.009,0-.015l-.016,5.433a3.9,3.9,0,0,0,2.3,3.215,8.845,8.845,0,0,0,1.775.767l4.474-2.6L.016,237.4h0L0,242.83l17.161,9.908a3.64,3.64,0,0,0,3.3,0,1.311,1.311,0,0,0,.644-.729c.008-.068.019-.135.042-.254a4.224,4.224,0,0,1,2.2-2.616,12.147,12.147,0,0,1,11.026,0,6.673,6.673,0,0,1,.737.492,6.648,6.648,0,0,1-.685.463,10.784,10.784,0,0,1-4.6,1.291c-.117.008-.233.014-.377.021a3.106,3.106,0,0,0-1.228.374,1.157,1.157,0,0,0-.678.953.008.008,0,0,0,0,0l-.016,5.431a1.168,1.168,0,0,0,.689.963l17.162,9.908,17.05-9.908a1.161,1.161,0,0,0,.679-.95l.016-5.433c0,.022,0,.042-.006.064a1.131,1.131,0,0,0-.684-1.027,3.175,3.175,0,0,0-1.261-.376c-.116,0-.232-.011-.438-.025a10.768,10.768,0,0,1-4.525-1.285,6.548,6.548,0,0,1-.735-.5,6.542,6.542,0,0,1,.683-.456,12.148,12.148,0,0,1,11.026,0,4.666,4.666,0,0,1,2.074,2.14l.208.746a1.333,1.333,0,0,0,.649.713,3.64,3.64,0,0,0,3.3,0l17.05-9.908.015-5.433" transform="translate(0 -47.959)"/><path class="b" d="M207.255,176.78a13.852,13.852,0,0,0-4.535-1.285c-.2-.014-.312-.02-.427-.025a3.163,3.163,0,0,1-1.261-.376,1.011,1.011,0,0,1-.011-1.913l17.05-9.908-12.69-7.326a8.8,8.8,0,0,0,1.706-.749,3.871,3.871,0,0,0,2.265-3.171l.016-5.432s0,.006,0,.008c0,.039-.008.077-.01.115.06-1.2-.7-2.42-2.291-3.34a12.151,12.151,0,0,0-11.025,0,4.229,4.229,0,0,0-2.214,2.668c-.013.067-.023.135-.035.219a1.312,1.312,0,0,1-.641.713,3.641,3.641,0,0,1-3.3,0l-17.162-9.908-17.05,9.908a1.157,1.157,0,0,0-.678.955v-.005l-.016,5.433a1.168,1.168,0,0,0,.689.963,3.171,3.171,0,0,0,1.26.376c.117,0,.233.011.438.025a10.765,10.765,0,0,1,4.524,1.285,6.667,6.667,0,0,1,.737.492,6.639,6.639,0,0,1-.684.462,12.148,12.148,0,0,1-11.026,0,4.294,4.294,0,0,1-2.243-2.667c-.014-.068-.025-.135-.038-.219a1.333,1.333,0,0,0-.649-.713,3.642,3.642,0,0,0-3.3,0l-16.985,9.871,17.161,9.908a3.65,3.65,0,0,0,3.271.018,1.285,1.285,0,0,0,.613-.709c.007-.067.018-.135.041-.254a4.3,4.3,0,0,1,2.269-2.654,12.151,12.151,0,0,1,11.025,0c3.055,1.764,3.071,4.623-.028,6.424a10.782,10.782,0,0,1-4.6,1.291c-.117.008-.233.014-.377.021a3.125,3.125,0,0,0-1.195.355c-.877.529-.862,1.373.042,1.894l17.162,9.908,16.985-9.871a3.642,3.642,0,0,1,3.3,0,1.333,1.333,0,0,1,.649.713c.012.083.024.151.038.219a3.082,3.082,0,0,0,.167.533,4.461,4.461,0,0,0,1.416,1.7c3.714,2.2,8.651,2.2,11.686.432S210.309,178.543,207.255,176.78Z" transform="translate(-82.558 0)"/><path class="c" d="M255.9,237.435l-.016,5.432,17.162,9.908a3.64,3.64,0,0,0,3.3,0,1.314,1.314,0,0,0,.646-.729,2.5,2.5,0,0,1,.041-.248,4.222,4.222,0,0,1,2.2-2.623,12.152,12.152,0,0,1,11.026,0,6.693,6.693,0,0,1,.736.491,6.547,6.547,0,0,1-.684.462,10.79,10.79,0,0,1-4.6,1.291c-.117.008-.233.014-.377.021a3.114,3.114,0,0,0-1.228.374,1.158,1.158,0,0,0-.678.953.007.007,0,0,0,0,0l-.016,5.431a1.168,1.168,0,0,0,.689.963l17.161,9.908,17.05-9.908a3.641,3.641,0,0,1,3.3,0,1.33,1.33,0,0,1,.653.729c.009.068.02.135.046.254a4.291,4.291,0,0,0,2.232,2.617,12.15,12.15,0,0,0,11.026,0,3.873,3.873,0,0,0,2.265-3.171l.016-5.432c0,.071-.012.142-.018.214.1-1.233-.652-2.488-2.283-3.429a8.979,8.979,0,0,0-1.9-.8c.04.012.082.022.122.034l12.576-7.308.016-5.433h0l-12.689-7.326a8.819,8.819,0,0,0,1.706-.749,3.873,3.873,0,0,0,2.265-3.171l.016-5.432c0,.05,0,.088-.005.122s-.011.077-.015.116c.116-1.241-.64-2.5-2.281-3.453a12.148,12.148,0,0,0-11.026,0,4.229,4.229,0,0,0-2.214,2.668c-.012.067-.023.135-.035.219a1.312,1.312,0,0,1-.641.713,3.641,3.641,0,0,1-3.3,0l-17.162-9.908-17.049,9.909a1.011,1.011,0,0,0,.011,1.913,3.171,3.171,0,0,0,1.261.377c.116,0,.232.011.427.024a13.862,13.862,0,0,1,4.535,1.285c3.054,1.763,3.07,4.622.036,6.386s-7.971,1.764-11.686-.432a4.458,4.458,0,0,1-1.416-1.7,3.075,3.075,0,0,1-.167-.533c-.014-.068-.025-.135-.038-.219a1.333,1.333,0,0,0-.649-.713,3.642,3.642,0,0,0-3.3,0L255.9,237.435" transform="translate(-165.477 -47.959)"/><g transform="translate(90.408 163.272)"><path class="d" d="M335.4,217.539c3.054,1.763,3.07,4.622.036,6.386a10.665,10.665,0,0,1-4.51,1.285c-.205.014-.321.02-.438.025a3.131,3.131,0,0,0-1.256.376,1.011,1.011,0,0,0,.01,1.914l17.162,9.908-17.05,9.908a1.011,1.011,0,0,0,.011,1.914,3.129,3.129,0,0,0,1.232.373l.378.021a10.867,10.867,0,0,1,4.613,1.291c3.054,1.763,3.07,4.622.036,6.386a12.147,12.147,0,0,1-11.026,0,4.292,4.292,0,0,1-2.232-2.617c-.025-.118-.036-.186-.046-.254a1.333,1.333,0,0,0-.653-.729,3.641,3.641,0,0,0-3.3,0l-17.05,9.908-17.162-9.908a1.011,1.011,0,0,1-.011-1.913,3.109,3.109,0,0,1,1.228-.374c.144-.007.26-.013.377-.021a10.792,10.792,0,0,0,4.6-1.291c3.034-1.763,3.018-4.622-.036-6.386a12.15,12.15,0,0,0-11.026,0,4.22,4.22,0,0,0-2.2,2.623,2.506,2.506,0,0,0-.041.248,1.311,1.311,0,0,1-.646.729,3.64,3.64,0,0,1-3.3,0l-17.162-9.908,17.05-9.908a3.64,3.64,0,0,1,3.3,0,1.333,1.333,0,0,1,.649.713c.012.083.024.151.038.219a3.084,3.084,0,0,0,.167.533,4.461,4.461,0,0,0,1.416,1.7c3.714,2.2,8.651,2.2,11.686.432s3.018-4.622-.036-6.386a13.842,13.842,0,0,0-4.535-1.285c-.2-.014-.311-.02-.427-.025a3.164,3.164,0,0,1-1.261-.376,1.011,1.011,0,0,1-.011-1.913l17.05-9.908,17.162,9.908a3.641,3.641,0,0,0,3.3,0,1.311,1.311,0,0,0,.641-.713c.012-.084.023-.151.035-.219a4.229,4.229,0,0,1,2.214-2.668A12.156,12.156,0,0,1,335.4,217.539Z" transform="translate(-255.912 -211.23)"/><path class="e" d="M468.36,241.36a10.665,10.665,0,0,1-4.51,1.285c-.205.014-.321.02-.438.025a3.131,3.131,0,0,0-1.256.376,1.011,1.011,0,0,0,.01,1.914l4.472,2.582a8.817,8.817,0,0,0,1.706-.749,3.873,3.873,0,0,0,2.265-3.171l.016-5.432c0,.05,0,.088-.005.122A3.943,3.943,0,0,1,468.36,241.36Z" transform="translate(-388.838 -228.664)"/><g transform="translate(72.761 26.203)"><path class="f" d="M512,285.393Z" transform="translate(-494.272 -285.393)"/><path class="e" d="M462.5,295.3a1.011,1.011,0,0,0,.011,1.914,3.13,3.13,0,0,0,1.232.373l.378.021a12.5,12.5,0,0,1,2.838.524l12.576-7.308.016-5.433Z" transform="translate(-461.822 -285.393)"/></g><path class="e" d="M328.9,306.262a6.655,6.655,0,0,1,.74.494,3.593,3.593,0,0,0,1.568-2.511v-.391a4.012,4.012,0,0,0-2.293-3.024,12.15,12.15,0,0,0-11.026,0,4.22,4.22,0,0,0-2.2,2.623,2.486,2.486,0,0,0-.041.248l-.016,5.432a2.5,2.5,0,0,1,.041-.248,4.222,4.222,0,0,1,2.2-2.623A12.151,12.151,0,0,1,328.9,306.262Z" transform="translate(-294.523 -268.317)"/><path class="e" d="M276.364,295.3a3.64,3.64,0,0,1-3.3,0L255.9,285.395l-.016,5.432,17.162,9.908a3.64,3.64,0,0,0,3.3,0,1.314,1.314,0,0,0,.646-.729l.016-5.432A1.308,1.308,0,0,1,276.364,295.3Z" transform="translate(-255.884 -259.191)"/><path class="e" d="M418.665,334.386a12.147,12.147,0,0,1-11.026,0,4.288,4.288,0,0,1-2.232-2.617c-.025-.118-.036-.186-.046-.254a1.333,1.333,0,0,0-.653-.729,3.641,3.641,0,0,0-3.3,0h0l-17.05,9.908-.016,5.432,17.05-9.908h0a3.641,3.641,0,0,1,3.3,0,1.33,1.33,0,0,1,.653.729c.009.068.02.135.046.254a4.291,4.291,0,0,0,2.232,2.617,12.15,12.15,0,0,0,11.026,0,3.873,3.873,0,0,0,2.265-3.171l.016-5.432A3.874,3.874,0,0,1,418.665,334.386Z" transform="translate(-338.955 -288.29)"/><path class="e" d="M334.519,329.751a1.168,1.168,0,0,1-.689-.963l-.016,5.432a1.168,1.168,0,0,0,.689.963l17.161,9.908.016-5.432Z" transform="translate(-306.28 -287.253)"/></g><g transform="translate(0 163.274)"><path class="g" d="M20.48,295.2a3.64,3.64,0,0,1-3.3,0L.016,285.289,0,290.722l17.161,9.908a3.64,3.64,0,0,0,3.3,0,1.311,1.311,0,0,0,.644-.729l.016-5.432A1.31,1.31,0,0,1,20.48,295.2Z" transform="translate(0 -259.125)"/><path class="g" d="M145.518,329.668l-17.05,9.908-.016,5.432L145.5,335.1a1.161,1.161,0,0,0,.679-.95l.016-5.432A1.161,1.161,0,0,1,145.518,329.668Z" transform="translate(-83.069 -287.21)"/><path class="g" d="M78.634,329.645a1.168,1.168,0,0,1-.689-.963l-.016,5.432a1.168,1.168,0,0,0,.689.963l17.162,9.908.016-5.432Z" transform="translate(-50.396 -287.186)"/><path class="h" d="M79.513,217.505c3.055,1.764,3.071,4.623.037,6.387a10.727,10.727,0,0,1-4.521,1.286c-.194.013-.311.019-.426.024a3.136,3.136,0,0,0-1.257.376,1.013,1.013,0,0,0,.011,1.913L90.517,237.4l-17.05,9.908a3.64,3.64,0,0,1-3.3,0,1.332,1.332,0,0,1-.649-.713c-.012-.083-.024-.151-.038-.219a4.3,4.3,0,0,0-2.244-2.668,12.15,12.15,0,0,0-11.026,0c-3.034,1.763-3.018,4.622.036,6.386a10.764,10.764,0,0,0,4.525,1.285c.205.014.322.02.438.024a3.173,3.173,0,0,1,1.261.376,1.011,1.011,0,0,1,.011,1.913L45.428,263.6l-17.162-9.908a1.011,1.011,0,0,1-.011-1.913,3.1,3.1,0,0,1,1.228-.374c.145-.007.26-.013.377-.021a10.791,10.791,0,0,0,4.6-1.291c3.035-1.764,3.019-4.623-.036-6.387a12.152,12.152,0,0,0-11.026,0,4.225,4.225,0,0,0-2.2,2.616c-.023.119-.034.186-.042.254a1.313,1.313,0,0,1-.644.729,3.64,3.64,0,0,1-3.3,0L.044,237.4l17.05-9.908a1.011,1.011,0,0,0-.011-1.914,3.13,3.13,0,0,0-1.232-.373l-.378-.021a10.889,10.889,0,0,1-4.613-1.291c-3.054-1.763-3.07-4.622-.036-6.386a12.147,12.147,0,0,1,11.026,0,4.287,4.287,0,0,1,2.234,2.623c.024.113.035.18.044.248a1.333,1.333,0,0,0,.653.729,3.641,3.641,0,0,0,3.3,0l16.985-9.871,17.227,9.87a3.649,3.649,0,0,0,3.271.018,1.348,1.348,0,0,0,.673-.731c.011-.083.022-.151.035-.219a4.214,4.214,0,0,1,2.188-2.652A12.152,12.152,0,0,1,79.513,217.505Z" transform="translate(-0.028 -211.235)"/><path class="g" d="M73.017,306.158a6.625,6.625,0,0,1,.741.495,3.488,3.488,0,0,0,1.576-2.73v0a3.917,3.917,0,0,0-2.3-3.192,12.152,12.152,0,0,0-11.026,0,4.224,4.224,0,0,0-2.2,2.616c-.023.119-.034.186-.042.254l-.016,5.432c.008-.068.019-.135.042-.254a4.225,4.225,0,0,1,2.2-2.616A12.151,12.151,0,0,1,73.017,306.158Z" transform="translate(-38.637 -268.252)"/><path class="g" d="M26.4,246.606a8.865,8.865,0,0,0,1.775.767l4.474-2.6a1.2,1.2,0,0,0,.672-.868v-.162a1.214,1.214,0,0,0-.683-.883,3.13,3.13,0,0,0-1.232-.373l-.378-.021a10.889,10.889,0,0,1-4.613-1.291,3.979,3.979,0,0,1-2.3-3.078c0-.028,0-.061,0-.1,0-.008,0-.016,0-.023s0-.009,0-.015l-.016,5.432A3.9,3.9,0,0,0,26.4,246.606Z" transform="translate(-15.584 -228.517)"/><path class="g" d="M172.12,295.2a3.641,3.641,0,0,1-3.3,0,1.333,1.333,0,0,1-.649-.713l-.007.009v-.05c-.01-.064-.019-.122-.031-.178a4.3,4.3,0,0,0-2.244-2.668,12.15,12.15,0,0,0-11.026,0c-2.765,1.607-3,4.124-.7,5.892a6.566,6.566,0,0,1,.689-.46,12.147,12.147,0,0,1,11.026,0,4.666,4.666,0,0,1,2.074,2.14l.208.746a1.333,1.333,0,0,0,.649.713,3.641,3.641,0,0,0,3.3,0l17.05-9.908.016-5.432Z" transform="translate(-98.681 -259.124)"/></g><g transform="translate(45.104 137.071)"><path class="i" d="M339.907,167.2a10.666,10.666,0,0,1-4.52,1.285c-.194.013-.311.019-.427.025a3.133,3.133,0,0,0-1.256.376,1.011,1.011,0,0,0,.01,1.914l4.472,2.582a8.8,8.8,0,0,0,1.706-.749,3.871,3.871,0,0,0,2.265-3.171l.016-5.432s0,.006,0,.008A3.877,3.877,0,0,1,339.907,167.2Z" transform="translate(-260.466 -154.502)"/><path class="b" d="M205.564,174.2a3.171,3.171,0,0,0,1.26.376c.117,0,.233.011.438.025a10.759,10.759,0,0,1,4.524,1.285,6.625,6.625,0,0,1,.741.495,3.53,3.53,0,0,0,1.573-2.631v-.172a3.954,3.954,0,0,0-2.3-3.124,10.761,10.761,0,0,0-4.524-1.285c-.205-.014-.322-.02-.438-.025a3.169,3.169,0,0,1-1.26-.376,1.2,1.2,0,0,1-.685-.911.193.193,0,0,1,0-.044V167.8l-.016,5.432A1.167,1.167,0,0,0,205.564,174.2Z" transform="translate(-177.593 -156.944)"/><path class="j" d="M173.044,189.438l16.985-9.871a3.64,3.64,0,0,1,3.3,0,1.333,1.333,0,0,1,.649.713c.013.083.024.151.038.219a3.083,3.083,0,0,0,.167.533,4.461,4.461,0,0,0,1.416,1.7c3.714,2.2,8.651,2.2,11.686.432s3.018-4.622-.036-6.386a13.843,13.843,0,0,0-4.535-1.285c-.2-.014-.312-.02-.427-.025a3.163,3.163,0,0,1-1.261-.376,1.011,1.011,0,0,1-.011-1.913l17.05-9.908-17.162-9.908a1.011,1.011,0,0,1-.01-1.914,3.133,3.133,0,0,1,1.256-.376c.117,0,.233-.011.428-.025a10.685,10.685,0,0,0,4.52-1.285c3.034-1.763,3.018-4.622-.037-6.387a12.151,12.151,0,0,0-11.025,0,4.229,4.229,0,0,0-2.214,2.668c-.012.067-.023.135-.035.219a1.312,1.312,0,0,1-.641.713,3.641,3.641,0,0,1-3.3,0l-17.162-9.908-17.05,9.908a1.011,1.011,0,0,0,.011,1.913,3.171,3.171,0,0,0,1.26.376c.117,0,.233.011.438.025a10.759,10.759,0,0,1,4.524,1.285c3.055,1.764,3.071,4.623.037,6.387a12.148,12.148,0,0,1-11.026,0,4.3,4.3,0,0,1-2.243-2.667c-.014-.068-.025-.135-.038-.219a1.333,1.333,0,0,0-.649-.713,3.64,3.64,0,0,0-3.3,0l-16.985,9.871,17.162,9.908a3.649,3.649,0,0,0,3.271.018,1.285,1.285,0,0,0,.613-.709c.007-.067.018-.135.041-.254a4.3,4.3,0,0,1,2.269-2.654,12.151,12.151,0,0,1,11.025,0c3.055,1.764,3.071,4.623-.028,6.424a10.782,10.782,0,0,1-4.6,1.291c-.117.008-.233.014-.377.021a3.125,3.125,0,0,0-1.195.355c-.877.529-.862,1.373.042,1.894l17.162,9.908Z" transform="translate(-127.659 -137.071)"/></g></g></svg>