<svg xmlns="http://www.w3.org/2000/svg" viewBox="0 0 122.63 131.75"><defs><style>.cls-1,.cls-14{fill:none;}.cls-1,.cls-12,.cls-14{stroke:#414042;stroke-miterlimit:10;}.cls-2{fill:#e6e7e8;}.cls-3{fill:#f5ab35;}.cls-4{fill:#fff;}.cls-5{fill:#3598a1;}.cls-12,.cls-6{fill:#47cbd7;}.cls-7{fill:#6cd5df;}.cls-8{fill:#414042;}.cls-9{fill:#b88028;}.cls-10{fill:#f7bc5d;}.cls-11{fill:#e7643e;}.cls-13{fill:#f1a28b;}.cls-14{stroke-dasharray:2;}</style></defs><title>solution</title><g id="Layer_2" data-name="Layer 2"><g id="solution"><g id="_Group_" data-name="&lt;Group&gt;"><path id="_Path_" data-name="&lt;Path&gt;" class="cls-1" d="M80.6,71.92c1.84-2.59-1.95-8.9-8.34-15.08"/><path id="_Path_2" data-name="&lt;Path&gt;" class="cls-1" d="M37.29,41C39.08,38.5,46,40,53.66,43.74l1.46.72"/><path id="_Path_3" data-name="&lt;Path&gt;" class="cls-1" d="M37.25,71.92C35.4,69.33,39.2,63,45.58,56.84"/><path id="_Path_4" data-name="&lt;Path&gt;" class="cls-1" d="M80.56,41C78.76,38.5,71.81,40,64.18,43.74l-1.46.72"/><g id="_Group_2" data-name="&lt;Group&gt;"><rect id="_Rectangle_" data-name="&lt;Rectangle&gt;" class="cls-2" x="56.23" y="78.33" width="5.6" height="7.75" rx="2.02" ry="2.02"/><rect id="_Rectangle_2" data-name="&lt;Rectangle&gt;" class="cls-1" x="56.23" y="78.33" width="5.6" height="7.75" rx="2.02" ry="2.02"/><circle id="_Path_5" data-name="&lt;Path&gt;" class="cls-3" cx="59.03" cy="55.11" r="13.96"/><rect id="_Rectangle_3" data-name="&lt;Rectangle&gt;" class="cls-3" x="52.29" y="60.68" width="13.49" height="15.34"/><polygon id="_Path_6" data-name="&lt;Path&gt;" class="cls-4" points="64.55 81.28 53.52 81.28 52.13 78.74 52.13 71.7 65.93 71.7 65.93 78.74 64.55 81.28"/><polygon id="_Path_7" data-name="&lt;Path&gt;" class="cls-1" points="64.55 81.28 53.52 81.28 52.13 78.74 52.13 71.7 65.93 71.7 65.93 78.74 64.55 81.28"/><line id="_Path_8" data-name="&lt;Path&gt;" class="cls-1" x1="50.56" y1="74.45" x2="67.51" y2="74.45"/><line id="_Path_9" data-name="&lt;Path&gt;" class="cls-1" x1="50.56" y1="76.49" x2="67.51" y2="76.49"/><line id="_Path_10" data-name="&lt;Path&gt;" class="cls-1" x1="50.56" y1="78.53" x2="67.51" y2="78.53"/></g><rect id="_Rectangle_4" data-name="&lt;Rectangle&gt;" class="cls-5" x="24.72" y="88.24" width="9.25" height="43.02" transform="translate(58.68 219.49) rotate(180)"/><polygon id="_Path_11" data-name="&lt;Path&gt;" class="cls-6" points="21.72 94.49 30.96 94.49 33.97 88.24 24.72 88.24 21.72 94.49"/><rect id="_Rectangle_5" data-name="&lt;Rectangle&gt;" class="cls-6" x="33.97" y="88.24" width="55.82" height="43.02"/><polygon id="_Path_12" data-name="&lt;Path&gt;" class="cls-7" points="92.79 94.49 36.97 94.49 33.97 88.24 89.79 88.24 92.79 94.49"/><path id="_Path_13" data-name="&lt;Path&gt;" class="cls-8" d="M62,53.81a3.11,3.11,0,1,0-4.68,2.67v5.06h3.14V56.48A3.09,3.09,0,0,0,62,53.81Z"/><g id="_Group_3" data-name="&lt;Group&gt;"><rect id="_Rectangle_6" data-name="&lt;Rectangle&gt;" class="cls-9" x="26.75" y="56.91" width="2.56" height="3.59"/><rect id="_Rectangle_7" data-name="&lt;Rectangle&gt;" class="cls-9" x="31.85" y="56.8" width="2.56" height="5.42"/><path id="_Path_14" data-name="&lt;Path&gt;" class="cls-3" d="M36.33,55.54H12.62V53.3A3.59,3.59,0,0,0,9,49.72H7.88A3.59,3.59,0,0,0,4.3,53.3v7.43a3.59,3.59,0,0,0,3.58,3.58H9a3.59,3.59,0,0,0,3.58-3.58V58.49H36.33Z"/><g id="_Group_4" data-name="&lt;Group&gt;"><path id="_Path_15" data-name="&lt;Path&gt;" class="cls-10" d="M7.88,50.82H9a3.59,3.59,0,0,1,3.58,3.58V53.3A3.59,3.59,0,0,0,9,49.72H7.88A3.59,3.59,0,0,0,4.3,53.3v1.1A3.59,3.59,0,0,1,7.88,50.82Z"/><rect id="_Path_16" data-name="&lt;Path&gt;" class="cls-10" x="12.62" y="55.54" width="23.71" height="1.1"/></g><path id="_Compound_Path_" data-name="&lt;Compound Path&gt;" class="cls-3" d="M2.6,54.31a2.6,2.6,0,1,0,2.6,2.6A2.6,2.6,0,0,0,2.6,54.31ZM2.6,58a1.07,1.07,0,1,1,1.07-1.07A1.07,1.07,0,0,1,2.6,58Z"/><line id="_Path_17" data-name="&lt;Path&gt;" class="cls-1" x1="6.07" y1="53.5" x2="10.84" y2="53.5"/><line id="_Path_18" data-name="&lt;Path&gt;" class="cls-1" x1="6.07" y1="56.08" x2="10.84" y2="56.08"/><line id="_Path_19" data-name="&lt;Path&gt;" class="cls-1" x1="6.07" y1="58.67" x2="10.84" y2="58.67"/><line id="_Path_20" data-name="&lt;Path&gt;" class="cls-1" x1="6.07" y1="61.25" x2="10.84" y2="61.25"/></g><path id="_Path_21" data-name="&lt;Path&gt;" class="cls-1" d="M80.56,41c2.59,3.63-5,13.49-17,22S39.84,75.55,37.25,71.92"/><path id="_Path_22" data-name="&lt;Path&gt;" class="cls-1" d="M37.29,41c-2.59,3.63,5,13.49,17,22S78,75.55,80.6,71.92"/><g id="_Group_5" data-name="&lt;Group&gt;"><g id="_Group_6" data-name="&lt;Group&gt;"><g id="_Group_7" data-name="&lt;Group&gt;"><path id="_Path_23" data-name="&lt;Path&gt;" class="cls-11" d="M98.35,58.7a6.82,6.82,0,0,0-6.82-6.82V58.7Z"/><path id="_Path_24" data-name="&lt;Path&gt;" class="cls-12" d="M98.35,58.7a6.82,6.82,0,0,0-6.82-6.82V58.7Z"/><path id="_Path_25" data-name="&lt;Path&gt;" class="cls-11" d="M100,58.7a8.48,8.48,0,1,1-8.48-8.48V58.7Z"/><path id="_Path_26" data-name="&lt;Path&gt;" class="cls-13" d="M96.16,58.7a4.63,4.63,0,1,1-4.63-4.63V58.7Z"/><path id="_Path_27" data-name="&lt;Path&gt;" class="cls-1" d="M100,58.7a8.48,8.48,0,1,1-8.48-8.48V58.7Z"/></g></g><line id="_Path_28" data-name="&lt;Path&gt;" class="cls-1" x1="94.04" y1="49.34" x2="93.64" y2="50.83"/><line id="_Path_29" data-name="&lt;Path&gt;" class="cls-1" x1="97.16" y1="48.96" x2="95.61" y2="51.64"/><line id="_Path_30" data-name="&lt;Path&gt;" class="cls-1" x1="98.35" y1="51.64" x2="97.29" y2="52.94"/><line id="_Path_31" data-name="&lt;Path&gt;" class="cls-1" x1="101.27" y1="53.07" x2="98.59" y2="54.62"/><line id="_Path_32" data-name="&lt;Path&gt;" class="cls-1" x1="100.9" y1="56.08" x2="99.41" y2="56.59"/></g><g id="_Group_8" data-name="&lt;Group&gt;"><path id="_Path_33" data-name="&lt;Path&gt;" class="cls-11" d="M62.61,16.2s2.35.46,2.44,2.35h0s2.13.39,1.5,3a4,4,0,0,1,1.1,4h0s2.22,1.5-.25,3.73v.26a3.7,3.7,0,0,1-1.78,3.37,21.22,21.22,0,0,0-2.31,2.47c-.69.84-2.95,1.81-4.07-1.52V16.78S60.69,14.06,62.61,16.2Z"/><path id="_Path_34" data-name="&lt;Path&gt;" class="cls-11" d="M54.76,16.2s-2.35.46-2.44,2.35h0s-2.13.39-1.5,3a4,4,0,0,0-1.1,4h0S47.51,27,50,29.25v.26a3.7,3.7,0,0,0,1.78,3.37,21.3,21.3,0,0,1,2.31,2.47c.69.84,2.95,1.81,4.07-1.52V16.78S56.69,14.06,54.76,16.2Z"/><path id="_Path_35" data-name="&lt;Path&gt;" class="cls-1" d="M62.61,16.2s2.35.46,2.44,2.35h0s2.13.39,1.5,3a4,4,0,0,1,1.1,4h0s2.22,1.5-.25,3.73v.26a3.7,3.7,0,0,1-1.78,3.37,21.22,21.22,0,0,0-2.31,2.47c-.69.84-2.95,1.81-4.07-1.52V16.78S60.69,14.06,62.61,16.2Z"/><path id="_Path_36" data-name="&lt;Path&gt;" class="cls-1" d="M54.76,16.2s-2.35.46-2.44,2.35h0s-2.13.39-1.5,3a4,4,0,0,0-1.1,4h0S47.51,27,50,29.25v.26a3.7,3.7,0,0,0,1.78,3.37,21.3,21.3,0,0,1,2.31,2.47c.69.84,2.95,1.81,4.07-1.52V16.78S56.69,14.06,54.76,16.2Z"/><path id="_Path_37" data-name="&lt;Path&gt;" class="cls-1" d="M65.3,22.87a2.28,2.28,0,0,1-3.51-2.33"/><path id="_Path_38" data-name="&lt;Path&gt;" class="cls-1" d="M63.52,28.7A2.28,2.28,0,0,1,60,26.38"/><path id="_Path_39" data-name="&lt;Path&gt;" class="cls-1" d="M67.41,29.18A1.85,1.85,0,0,1,66.27,26"/><path id="_Path_40" data-name="&lt;Path&gt;" class="cls-1" d="M61.88,25.54a2.28,2.28,0,0,1,.28-3.21"/><path id="_Path_41" data-name="&lt;Path&gt;" class="cls-1" d="M65.94,28.35A2.28,2.28,0,0,0,63,27"/><path id="_Path_42" data-name="&lt;Path&gt;" class="cls-1" d="M63.41,19.73a2.28,2.28,0,0,1-.17-3.22"/><path id="_Path_43" data-name="&lt;Path&gt;" class="cls-1" d="M60.42,19.83a2.28,2.28,0,0,0,2.28-2.27"/><path id="_Path_44" data-name="&lt;Path&gt;" class="cls-1" d="M60.74,34.46a2.28,2.28,0,0,1,3.22,0"/><path id="_Path_45" data-name="&lt;Path&gt;" class="cls-1" d="M61.79,30.9a2.28,2.28,0,0,0,1.29,3"/><path id="_Path_46" data-name="&lt;Path&gt;" class="cls-1" d="M52.08,22.89a2.28,2.28,0,0,0,3.51-2.33"/><path id="_Path_47" data-name="&lt;Path&gt;" class="cls-1" d="M53.85,28.73a2.28,2.28,0,0,0,3.51-2.33"/><path id="_Path_48" data-name="&lt;Path&gt;" class="cls-1" d="M50,29.21A1.85,1.85,0,0,0,51.1,26"/><path id="_Path_49" data-name="&lt;Path&gt;" class="cls-1" d="M55.5,25.56a2.28,2.28,0,0,0-.28-3.21"/><path id="_Path_50" data-name="&lt;Path&gt;" class="cls-1" d="M51.44,28.37A2.28,2.28,0,0,1,54.35,27"/><path id="_Path_51" data-name="&lt;Path&gt;" class="cls-1" d="M54,19.75a2.28,2.28,0,0,0,.17-3.22"/><path id="_Path_52" data-name="&lt;Path&gt;" class="cls-1" d="M57,19.86a2.28,2.28,0,0,1-2.28-2.27"/><path id="_Path_53" data-name="&lt;Path&gt;" class="cls-1" d="M56.63,34.48a2.28,2.28,0,0,0-3.22,0"/><path id="_Path_54" data-name="&lt;Path&gt;" class="cls-1" d="M55.59,30.92a2.28,2.28,0,0,1-1.29,3"/></g><g id="_Group_9" data-name="&lt;Group&gt;"><g id="_Group_10" data-name="&lt;Group&gt;"><path id="_Path_55" data-name="&lt;Path&gt;" class="cls-14" d="M97.16,84.65a6.32,6.32,0,0,1,0-12.65"/><path id="_Path_56" data-name="&lt;Path&gt;" class="cls-1" d="M97.16,72a6.32,6.32,0,1,1,0,12.65"/></g><g id="_Group_11" data-name="&lt;Group&gt;"><line id="_Path_57" data-name="&lt;Path&gt;" class="cls-1" x1="95.97" y1="78.33" x2="98.34" y2="78.33"/><line id="_Path_58" data-name="&lt;Path&gt;" class="cls-1" x1="97.16" y1="79.51" x2="97.16" y2="77.14"/></g></g><polygon id="_Path_59" data-name="&lt;Path&gt;" class="cls-1" points="38.08 19.73 40.17 20.93 40.17 18.52 38.08 19.73 40.17 20.93 40.17 18.52 38.08 19.73"/><polygon id="_Path_60" data-name="&lt;Path&gt;" class="cls-1" points="11.57 75.55 13.66 76.76 13.66 74.35 11.57 75.55 13.66 76.76 13.66 74.35 11.57 75.55"/><polygon id="_Path_61" data-name="&lt;Path&gt;" class="cls-1" points="75.62 79.52 77.71 80.72 77.71 78.31 75.62 79.52 77.71 80.72 77.71 78.31 75.62 79.52"/><polygon id="_Path_62" data-name="&lt;Path&gt;" class="cls-1" points="33.26 26.4 30.45 28.02 30.45 24.78 33.26 26.4 30.45 28.02 30.45 24.78 33.26 26.4"/><polygon id="_Path_63" data-name="&lt;Path&gt;" class="cls-1" points="92.23 2.48 89.43 4.1 89.43 0.87 92.23 2.48 89.43 4.1 89.43 0.87 92.23 2.48"/><g id="_Group_12" data-name="&lt;Group&gt;"><line id="_Path_64" data-name="&lt;Path&gt;" class="cls-1" x1="11.2" y1="32.4" x2="35.93" y2="32.4"/><line id="_Path_65" data-name="&lt;Path&gt;" class="cls-1" x1="39.13" y1="32.4" x2="36.99" y2="32.4"/><line id="_Path_66" data-name="&lt;Path&gt;" class="cls-1" x1="42.29" y1="32.4" x2="40.15" y2="32.4"/></g><g id="_Group_13" data-name="&lt;Group&gt;"><line id="_Path_67" data-name="&lt;Path&gt;" class="cls-1" x1="20.39" y1="84.65" x2="45.12" y2="84.65"/><line id="_Path_68" data-name="&lt;Path&gt;" class="cls-1" x1="48.31" y1="84.65" x2="46.18" y2="84.65"/><line id="_Path_69" data-name="&lt;Path&gt;" class="cls-1" x1="51.48" y1="84.65" x2="49.34" y2="84.65"/></g><g id="_Group_14" data-name="&lt;Group&gt;"><line id="_Path_70" data-name="&lt;Path&gt;" class="cls-1" x1="122.63" y1="45.06" x2="97.89" y2="45.06"/><line id="_Path_71" data-name="&lt;Path&gt;" class="cls-1" x1="94.7" y1="45.06" x2="96.84" y2="45.06"/><line id="_Path_72" data-name="&lt;Path&gt;" class="cls-1" x1="91.54" y1="45.06" x2="93.67" y2="45.06"/></g><g id="_Group_15" data-name="&lt;Group&gt;"><line id="_Path_73" data-name="&lt;Path&gt;" class="cls-1" x1="68.44" y1="4.93" x2="43.71" y2="4.93"/><line id="_Path_74" data-name="&lt;Path&gt;" class="cls-1" x1="40.51" y1="4.93" x2="42.65" y2="4.93"/><line id="_Path_75" data-name="&lt;Path&gt;" class="cls-1" x1="37.35" y1="4.93" x2="39.49" y2="4.93"/></g><g id="_Group_16" data-name="&lt;Group&gt;"><line id="_Path_76" data-name="&lt;Path&gt;" class="cls-1" x1="4.25" y1="32.4" x2="7.89" y2="32.4"/><line id="_Path_77" data-name="&lt;Path&gt;" class="cls-1" x1="6.07" y1="34.22" x2="6.07" y2="30.58"/></g><g id="_Group_17" data-name="&lt;Group&gt;"><line id="_Path_78" data-name="&lt;Path&gt;" class="cls-1" x1="106.28" y1="37.04" x2="108.84" y2="37.04"/><line id="_Path_79" data-name="&lt;Path&gt;" class="cls-1" x1="107.56" y1="38.32" x2="107.56" y2="35.76"/></g><g id="_Group_18" data-name="&lt;Group&gt;"><line id="_Path_80" data-name="&lt;Path&gt;" class="cls-1" x1="25.47" y1="44.46" x2="28.02" y2="44.46"/><line id="_Path_81" data-name="&lt;Path&gt;" class="cls-1" x1="26.75" y1="45.74" x2="26.75" y2="43.18"/></g><g id="_Group_19" data-name="&lt;Group&gt;"><line id="_Path_82" data-name="&lt;Path&gt;" class="cls-1" x1="80.52" y1="9.04" x2="83.08" y2="9.04"/><line id="_Path_83" data-name="&lt;Path&gt;" class="cls-1" x1="81.8" y1="10.32" x2="81.8" y2="7.76"/></g><g id="_Group_20" data-name="&lt;Group&gt;"><line id="_Path_84" data-name="&lt;Path&gt;" class="cls-1" x1="22.9" y1="69.07" x2="26.54" y2="69.07"/><line id="_Path_85" data-name="&lt;Path&gt;" class="cls-1" x1="24.72" y1="70.89" x2="24.72" y2="67.25"/></g><g id="_Group_21" data-name="&lt;Group&gt;"><line id="_Path_86" data-name="&lt;Path&gt;" class="cls-1" x1="98.5" y1="15.37" x2="102.14" y2="15.37"/><line id="_Path_87" data-name="&lt;Path&gt;" class="cls-1" x1="100.32" y1="17.19" x2="100.32" y2="13.55"/></g><line id="_Path_88" data-name="&lt;Path&gt;" class="cls-1" x1="1.52" y1="26.83" x2="23.72" y2="26.83"/><line id="_Path_89" data-name="&lt;Path&gt;" class="cls-1" x1="83.73" y1="28.72" x2="101.7" y2="28.72"/><g id="_Group_22" data-name="&lt;Group&gt;"><g id="_Group_23" data-name="&lt;Group&gt;"><path id="_Path_90" data-name="&lt;Path&gt;" class="cls-14" d="M21.62,20.91a8,8,0,0,1,0-16"/><path id="_Path_91" data-name="&lt;Path&gt;" class="cls-1" d="M21.62,4.93a8,8,0,1,1,0,16"/></g><g id="_Group_24" data-name="&lt;Group&gt;"><path id="_Compound_Path_2" data-name="&lt;Compound Path&gt;" class="cls-1" d="M25.1,12.28h-.63a2.92,2.92,0,0,0-.38-.91l.45-.45a.41.41,0,0,0,0-.58L24.2,10a.41.41,0,0,0-.58,0l-.45.45a2.9,2.9,0,0,0-.91-.38V9.45A.41.41,0,0,0,21.86,9h-.47a.41.41,0,0,0-.41.41v.63a2.92,2.92,0,0,0-.9.37L19.63,10a.41.41,0,0,0-.58,0l-.34.33a.41.41,0,0,0,0,.58l.44.45a2.91,2.91,0,0,0-.38.91h-.63a.41.41,0,0,0-.41.41v.47a.41.41,0,0,0,.41.41h.63a2.88,2.88,0,0,0,.38.91l-.45.45a.41.41,0,0,0,0,.58l.33.33a.41.41,0,0,0,.58,0l.45-.44a2.91,2.91,0,0,0,.91.38v.63a.41.41,0,0,0,.41.41h.47a.41.41,0,0,0,.41-.41v-.63a2.92,2.92,0,0,0,.91-.38l.45.45a.41.41,0,0,0,.58,0l.33-.33a.41.41,0,0,0,0-.58l-.44-.45a2.91,2.91,0,0,0,.38-.91h.63a.41.41,0,0,0,.41-.41v-.47A.41.41,0,0,0,25.1,12.28Zm-3.48,1.93a1.3,1.3,0,1,1,1.3-1.3A1.3,1.3,0,0,1,21.62,14.22Z"/></g></g><circle id="_Path_92" data-name="&lt;Path&gt;" class="cls-1" cx="80.56" cy="28.72" r="1.24"/><circle id="_Path_93" data-name="&lt;Path&gt;" class="cls-1" cx="35.81" cy="78.01" r="1.02"/><circle id="_Path_94" data-name="&lt;Path&gt;" class="cls-1" cx="110.26" cy="64.38" r="1.02"/><line id="_Path_95" data-name="&lt;Path&gt;" class="cls-1" x1="59.97" y1="9.04" x2="76.9" y2="9.04"/><line id="_Path_96" data-name="&lt;Path&gt;" class="cls-1" x1="0.34" y1="131.25" x2="120.29" y2="131.25"/><circle id="_Path_97" data-name="&lt;Path&gt;" class="cls-6" cx="17.74" cy="43.18" r="3.88"/><circle id="_Path_98" data-name="&lt;Path&gt;" class="cls-1" cx="21.62" cy="39.76" r="3.88"/><polygon id="_Path_99" data-name="&lt;Path&gt;" class="cls-11" points="86.91 14.48 82.34 22.39 91.48 22.39 86.91 14.48 82.34 22.39 91.48 22.39 86.91 14.48"/><polygon id="_Path_100" data-name="&lt;Path&gt;" class="cls-3" points="91.48 17.44 87.45 24.43 95.51 24.43 91.48 17.44 87.45 24.43 95.51 24.43 91.48 17.44"/></g></g></g></svg>