<svg xmlns="http://www.w3.org/2000/svg" viewBox="0 0 143.77 137.57"><defs><style>.cls-1{fill:#fff;}.cls-16,.cls-2{fill:none;stroke:#414042;stroke-miterlimit:10;}.cls-3{fill:#d1d3d4;}.cls-4{fill:#414042;}.cls-5{fill:#47cbd7;}.cls-6{fill:#3598a1;}.cls-7{fill:#91e0e7;}.cls-8{fill:#f5ab35;}.cls-9{fill:#b88028;}.cls-10{fill:#f9cd86;}.cls-11{fill:#231f20;opacity:0.3;}.cls-12{fill:#e7643e;}.cls-13{fill:#ad4b2f;}.cls-14{fill:#e6e7e8;}.cls-15{fill:#535151;}.cls-16{stroke-width:1.5px;}</style></defs><title>startup</title><g id="Layer_2" data-name="Layer 2"><g id="Startup"><g id="_Group_" data-name="&lt;Group&gt;"><g id="_Group_2" data-name="&lt;Group&gt;"><circle id="_Path_" data-name="&lt;Path&gt;" class="cls-1" cx="43.67" cy="104.24" r="2.5"/><circle id="_Path_2" data-name="&lt;Path&gt;" class="cls-1" cx="118.17" cy="102.7" r="4.19"/><circle id="_Path_3" data-name="&lt;Path&gt;" class="cls-2" cx="43.67" cy="104.24" r="2.5"/><circle id="_Path_4" data-name="&lt;Path&gt;" class="cls-1" cx="95.87" cy="112.57" r="1.86"/><circle id="_Path_5" data-name="&lt;Path&gt;" class="cls-2" cx="95.87" cy="112.57" r="1.86"/><circle id="_Path_6" data-name="&lt;Path&gt;" class="cls-1" cx="3.73" cy="102.76" r="1.49"/><circle id="_Path_7" data-name="&lt;Path&gt;" class="cls-2" cx="3.73" cy="102.76" r="1.49"/><circle id="_Path_8" data-name="&lt;Path&gt;" class="cls-1" cx="29.32" cy="87.89" r="1.49"/><circle id="_Path_9" data-name="&lt;Path&gt;" class="cls-2" cx="29.32" cy="87.89" r="1.49"/><circle id="_Path_10" data-name="&lt;Path&gt;" class="cls-1" cx="134.48" cy="113.8" r="2.13"/><circle id="_Path_11" data-name="&lt;Path&gt;" class="cls-2" cx="134.48" cy="113.8" r="2.13"/><circle id="_Path_12" data-name="&lt;Path&gt;" class="cls-2" cx="118.17" cy="102.7" r="4.19"/><circle id="_Path_13" data-name="&lt;Path&gt;" class="cls-1" cx="11.27" cy="107.58" r="4.19"/><circle id="_Path_14" data-name="&lt;Path&gt;" class="cls-2" cx="11.27" cy="107.58" r="4.19"/><path id="_Path_15" data-name="&lt;Path&gt;" class="cls-1" d="M66.72,126.3c0-.09,0-.18,0-.27a4.3,4.3,0,0,0-8.55-.68H58a5.91,5.91,0,0,0-8.86-6.45,11.83,11.83,0,0,0-11.75-10.48l-.63,0a6.13,6.13,0,1,0-11.27-.63,7.54,7.54,0,0,0-8.79,4.43l-.59,0A9.52,9.52,0,0,0,8.92,128,12.57,12.57,0,0,0,5.21,137h8.06s0,.08,0,.12H134.48a11.73,11.73,0,0,0-6-10.24,11.95,11.95,0,0,0-15.17-17,5.64,5.64,0,1,0-9.8,5.36,6.57,6.57,0,0,0-5.5,5.5,4.54,4.54,0,0,0-7.44,4.81,11.65,11.65,0,0,0-2.36.71,4.55,4.55,0,0,0-8.79-.19,11.69,11.69,0,0,0-3.6-.72h0a4.55,4.55,0,0,0-9.1,0"/><path id="_Path_16" data-name="&lt;Path&gt;" class="cls-2" d="M88.2,126.26a4.55,4.55,0,0,0-8.79-.19,11.69,11.69,0,0,0-3.6-.72h0A4.55,4.55,0,0,0,68,122.15"/><path id="_Path_17" data-name="&lt;Path&gt;" class="cls-2" d="M134.48,137.07a11.73,11.73,0,0,0-6-10.24,11.95,11.95,0,0,0-15.17-17,5.64,5.64,0,1,0-9.8,5.36,6.57,6.57,0,0,0-5.5,5.5,4.53,4.53,0,0,0-3.17-1.29"/><path id="_Path_18" data-name="&lt;Path&gt;" class="cls-2" d="M62.43,121.73a4.3,4.3,0,0,0-4.24,3.62H58a5.91,5.91,0,0,0-8.86-6.45,11.83,11.83,0,0,0-11.75-10.48l-.63,0a6.13,6.13,0,1,0-11.27-.63,7.54,7.54,0,0,0-8.79,4.43l-.59,0A9.52,9.52,0,0,0,8.92,128,12.57,12.57,0,0,0,5.21,137"/><path id="_Path_19" data-name="&lt;Path&gt;" class="cls-2" d="M68.36,129a4.59,4.59,0,0,1,.12-7.25"/><path id="_Path_20" data-name="&lt;Path&gt;" class="cls-2" d="M87.34,130.21a4.57,4.57,0,0,1-1.43,1.18"/><path id="_Path_21" data-name="&lt;Path&gt;" class="cls-2" d="M88,125.67a4.56,4.56,0,0,1-.16,3.75"/><path id="_Path_22" data-name="&lt;Path&gt;" class="cls-2" d="M98.17,123.56a6.59,6.59,0,0,1,1.16-5.89"/><path id="_Path_23" data-name="&lt;Path&gt;" class="cls-2" d="M60.25,133.14a4.35,4.35,0,0,1,4.35-4.35"/><path id="_Path_24" data-name="&lt;Path&gt;" class="cls-2" d="M110.91,111.29a11.9,11.9,0,0,1,7.26-2.46"/><path id="_Path_25" data-name="&lt;Path&gt;" class="cls-2" d="M109,113.12a12,12,0,0,1,.87-.94"/><path id="_Path_26" data-name="&lt;Path&gt;" class="cls-2" d="M107.45,115.5a12,12,0,0,1,.9-1.52"/><path id="_Path_27" data-name="&lt;Path&gt;" class="cls-2" d="M46.46,123.81a5.91,5.91,0,0,1,2.95-5.12"/><path id="_Path_28" data-name="&lt;Path&gt;" class="cls-2" d="M11.27,129.9a9.55,9.55,0,0,1-4.52-6.11"/><path id="_Path_29" data-name="&lt;Path&gt;" class="cls-2" d="M16,131.17a9.53,9.53,0,0,1-2.81-.42"/><path id="_Path_30" data-name="&lt;Path&gt;" class="cls-2" d="M122.75,125.34a11.68,11.68,0,0,1,7,2.33"/><path id="_Path_31" data-name="&lt;Path&gt;" class="cls-2" d="M16,115.15a7.57,7.57,0,0,1,7.57-7.57"/><path id="_Path_32" data-name="&lt;Path&gt;" class="cls-2" d="M37.35,105.78a6.11,6.11,0,0,1-1.78,4.31"/><path id="_Path_33" data-name="&lt;Path&gt;" class="cls-2" d="M25.47,131.64a7.25,7.25,0,0,1,13.74-1.11,5.07,5.07,0,0,1,6,3.2h7.36"/><path id="_Path_34" data-name="&lt;Path&gt;" class="cls-2" d="M113.66,133a8.59,8.59,0,0,0-16.28-1.32l-4.95,0"/><path id="_Path_35" data-name="&lt;Path&gt;" class="cls-2" d="M32.92,119.19A3.3,3.3,0,0,0,29,117.1a4.72,4.72,0,0,0-8.95.72"/><path id="_Path_36" data-name="&lt;Path&gt;" class="cls-2" d="M111.73,119.64a3.3,3.3,0,0,1,3.93-2.08,4.72,4.72,0,0,1,8.95.72"/></g><g id="_Group_3" data-name="&lt;Group&gt;"><g id="_Group_4" data-name="&lt;Group&gt;"><g id="_Group_5" data-name="&lt;Group&gt;"><rect id="_Rectangle_" data-name="&lt;Rectangle&gt;" class="cls-3" x="86.12" y="96.45" width="9.19" height="7.41"/><rect id="_Rectangle_2" data-name="&lt;Rectangle&gt;" class="cls-4" x="84.48" y="103.56" width="12.48" height="1.61"/><line id="_Path_37" data-name="&lt;Path&gt;" class="cls-2" x1="87.91" y1="98.75" x2="93.53" y2="98.75"/><line id="_Path_38" data-name="&lt;Path&gt;" class="cls-2" x1="87.91" y1="100.57" x2="93.53" y2="100.57"/><line id="_Path_39" data-name="&lt;Path&gt;" class="cls-2" x1="87.91" y1="102.39" x2="93.53" y2="102.39"/></g><g id="_Group_6" data-name="&lt;Group&gt;"><path id="_Path_40" data-name="&lt;Path&gt;" class="cls-5" d="M84.81,99H96.62V50.49a21.41,21.41,0,0,0-4.91-13.64h0a1.29,1.29,0,0,0-2,0h0a21.41,21.41,0,0,0-4.91,13.64Z"/><path id="_Path_41" data-name="&lt;Path&gt;" class="cls-6" d="M89.72,36.85a1.28,1.28,0,0,1,.85-.45c-2.85,3.73-2.78,9.39-2.78,14.09V99h-3V50.49A21.41,21.41,0,0,1,89.72,36.85Z"/><path id="_Path_42" data-name="&lt;Path&gt;" class="cls-7" d="M89.53,37.09l.19-.25h0a1.29,1.29,0,0,1,2,0,21.41,21.41,0,0,1,4.91,13.64V99H94.24V50.49A21.41,21.41,0,0,0,89.53,37.09Z"/></g></g><g id="_Group_7" data-name="&lt;Group&gt;"><g id="_Group_8" data-name="&lt;Group&gt;"><rect id="_Rectangle_3" data-name="&lt;Rectangle&gt;" class="cls-3" x="51.07" y="96.45" width="9.19" height="7.41" transform="translate(111.33 200.31) rotate(180)"/><rect id="_Rectangle_4" data-name="&lt;Rectangle&gt;" class="cls-4" x="49.42" y="103.56" width="12.48" height="1.61" transform="translate(111.33 208.73) rotate(180)"/><line id="_Path_43" data-name="&lt;Path&gt;" class="cls-2" x1="58.47" y1="98.75" x2="52.85" y2="98.75"/><line id="_Path_44" data-name="&lt;Path&gt;" class="cls-2" x1="58.47" y1="100.57" x2="52.85" y2="100.57"/><line id="_Path_45" data-name="&lt;Path&gt;" class="cls-2" x1="58.47" y1="102.39" x2="52.85" y2="102.39"/></g><g id="_Group_9" data-name="&lt;Group&gt;"><path id="_Path_46" data-name="&lt;Path&gt;" class="cls-5" d="M61.57,99H49.76V50.49a21.41,21.41,0,0,1,4.91-13.64h0a1.29,1.29,0,0,1,2,0h0a21.41,21.41,0,0,1,4.91,13.64Z"/><path id="_Path_47" data-name="&lt;Path&gt;" class="cls-6" d="M56.66,36.85a1.28,1.28,0,0,0-.85-.45c2.85,3.73,2.78,9.39,2.78,14.09V99h3V50.49A21.41,21.41,0,0,0,56.66,36.85Z"/><path id="_Path_48" data-name="&lt;Path&gt;" class="cls-7" d="M56.85,37.09l-.19-.25h0a1.29,1.29,0,0,0-2,0,21.41,21.41,0,0,0-4.91,13.64V99h2.38V50.49A21.41,21.41,0,0,1,56.85,37.09Z"/></g></g><g id="_Group_10" data-name="&lt;Group&gt;"><path id="_Path_49" data-name="&lt;Path&gt;" class="cls-8" d="M84.93,93.6H61.65V24.85A20.81,20.81,0,0,1,69.74,8.38L71.48,7A3,3,0,0,1,75.1,7l2,1.51a20.25,20.25,0,0,1,7.87,16Z"/><path id="_Path_50" data-name="&lt;Path&gt;" class="cls-9" d="M76.92,8.44,74.47,6.54c-1.37-1.06-2.3-.16-3,.51.08.2,1.49-.76,1.53-.73l1.14.3c5.06,3.91,7.24,11.75,7.24,18.14V93.22a.37.37,0,0,0,.37.37h2.82a.37.37,0,0,0,.37-.37V24.76A20.63,20.63,0,0,0,76.92,8.44Z"/><path id="_Path_51" data-name="&lt;Path&gt;" class="cls-10" d="M75.43,7.29l-1-.75c-.76-.59-1-.19-1.17-.24l-.74-.12-.44.36L71,7.41a21.14,21.14,0,0,0-7.76,16.35V93.6h4.29V23.76A21.14,21.14,0,0,1,75.43,7.29Z"/></g><path id="_Path_52" data-name="&lt;Path&gt;" class="cls-11" d="M95.09,91v-9.1a12.64,12.64,0,0,0-3.82-9,44.32,44.32,0,0,1-4.87-5.37l-3-4.1V46.14A17.27,17.27,0,0,0,76.7,32.56l-.59-.45a2.11,2.11,0,0,0-1-.42c-.27-.26-.25-.26-.52,0a2.12,2.12,0,0,0-1,.42l-.44.34a17.67,17.67,0,0,0-6.82,13.89V63l-3.32,4.49a44.32,44.32,0,0,1-4.87,5.37,12.64,12.64,0,0,0-3.82,9V91h12v3H83.37V91Z"/><g id="_Group_11" data-name="&lt;Group&gt;"><rect id="_Rectangle_5" data-name="&lt;Rectangle&gt;" class="cls-3" x="67.94" y="90.55" width="10.82" height="8.72"/><rect id="_Rectangle_6" data-name="&lt;Rectangle&gt;" class="cls-2" x="67.94" y="90.55" width="10.82" height="8.72"/><rect id="_Rectangle_7" data-name="&lt;Rectangle&gt;" class="cls-4" x="66.01" y="98.91" width="14.69" height="1.9"/><path id="_Path_53" data-name="&lt;Path&gt;" class="cls-12" d="M53.21,90.63H66.88V60.86l-5,6.82a44.57,44.57,0,0,1-4.91,5.41,12.23,12.23,0,0,0-3.72,8.78Z"/><polygon id="_Path_54" data-name="&lt;Path&gt;" class="cls-13" points="62.51 66.77 62.51 90.63 66.88 90.63 66.88 60.86 62.51 66.77"/><path id="_Path_55" data-name="&lt;Path&gt;" class="cls-12" d="M93.37,90.55H79.7V60.91l5,6.79a44.45,44.45,0,0,0,4.91,5.39,12.15,12.15,0,0,1,3.72,8.74Z"/><polygon id="_Path_56" data-name="&lt;Path&gt;" class="cls-13" points="84.49 66.77 84.49 90.63 80.12 90.63 80.12 60.86 84.49 66.77"/><path id="_Path_57" data-name="&lt;Path&gt;" class="cls-2" d="M53.21,90.63H66.88V60.86l-5,6.82a44.57,44.57,0,0,1-4.91,5.41,12.23,12.23,0,0,0-3.72,8.78Z"/><path id="_Path_58" data-name="&lt;Path&gt;" class="cls-2" d="M93.37,90.63H79.7V60.86l5,6.82a44.58,44.58,0,0,0,4.91,5.41,12.23,12.23,0,0,1,3.72,8.78Z"/><path id="_Path_59" data-name="&lt;Path&gt;" class="cls-1" d="M81.65,93.6H65.22V45.09a14.68,14.68,0,0,1,5.71-11.62l1.68-1.3c1.19-.92.47-.92,1.66,0l1.83,1.42A14.29,14.29,0,0,1,81.65,44.9Z"/><path id="_Path_60" data-name="&lt;Path&gt;" class="cls-14" d="M74.93,33.61l0,0-1.47-1.14-1.32,1a14.68,14.68,0,0,0-5.71,11.62V93.6h3V45.09A14.68,14.68,0,0,1,74.93,33.61Z"/><path id="_Path_61" data-name="&lt;Path&gt;" class="cls-15" d="M68.17,36.48l3.19-3.32c.06-.07.65-.41.73-.47,1.42-1.1,1.4-1,2.81.13a1.74,1.74,0,0,1,.24.22l3.41,3.35Z"/><path id="_Path_62" data-name="&lt;Path&gt;" class="cls-16" d="M68.57,51.21a4.78,4.78,0,1,1,9.57,0"/><path id="_Path_63" data-name="&lt;Path&gt;" class="cls-2" d="M81.65,93.6H65.22V46.34a17.21,17.21,0,0,1,6.69-13.62l.44-.34a1.78,1.78,0,0,1,2.18,0l.59.45a16.82,16.82,0,0,1,6.54,13.31Z"/><line id="_Path_64" data-name="&lt;Path&gt;" class="cls-2" x1="70.04" y1="94.82" x2="76.66" y2="94.82"/><line id="_Path_65" data-name="&lt;Path&gt;" class="cls-2" x1="70.04" y1="97.54" x2="76.66" y2="97.54"/></g></g><g id="_Group_12" data-name="&lt;Group&gt;"><rect id="_Rectangle_8" data-name="&lt;Rectangle&gt;" class="cls-12" x="24.81" y="65.34" width="11.98" height="11.98" rx="3.35" ry="3.35"/><rect id="_Rectangle_9" data-name="&lt;Rectangle&gt;" class="cls-2" x="24.81" y="65.34" width="11.98" height="11.98" rx="3.35" ry="3.35"/><g id="_Group_13" data-name="&lt;Group&gt;"><polygon id="_Path_66" data-name="&lt;Path&gt;" class="cls-1" points="29.91 73.77 27.62 71.48 28.63 70.47 29.9 71.74 32.96 68.61 33.98 69.6 29.91 73.77"/></g></g><path id="_Path_67" data-name="&lt;Path&gt;" class="cls-2" d="M41.85,72.76c0,.68-1.38.68-1.38,1.35s1.38.68,1.38,1.35-1.38.68-1.38,1.35,1.38.68,1.38,1.35"/><path id="_Path_68" data-name="&lt;Path&gt;" class="cls-2" d="M60.73,0c0,.68-1.38.68-1.38,1.35S60.73,2,60.73,2.7s-1.38.68-1.38,1.35,1.38.68,1.38,1.35"/><path id="_Path_69" data-name="&lt;Path&gt;" class="cls-2" d="M125.4,88.4c0,.68-1.38.68-1.38,1.35s1.38.68,1.38,1.35-1.38.68-1.38,1.35,1.38.68,1.38,1.35"/><path id="_Path_70" data-name="&lt;Path&gt;" class="cls-2" d="M112.42,27c0,.68-1.38.68-1.38,1.35s1.38.68,1.38,1.35S111,30.36,111,31s1.38.68,1.38,1.35"/><circle id="_Path_71" data-name="&lt;Path&gt;" class="cls-2" cx="30.32" cy="31.64" r="1.03"/><circle id="_Path_72" data-name="&lt;Path&gt;" class="cls-2" cx="16.04" cy="63.03" r="1.03"/><polygon id="_Path_73" data-name="&lt;Path&gt;" class="cls-2" points="124.71 66.02 127.81 67.81 127.81 64.24 124.71 66.02 127.81 67.81 127.81 64.24 124.71 66.02"/><polygon id="_Path_74" data-name="&lt;Path&gt;" class="cls-2" points="13.91 47.64 17.01 49.43 17.01 45.85 13.91 47.64 17.01 49.43 17.01 45.85 13.91 47.64"/><polygon id="_Path_75" data-name="&lt;Path&gt;" class="cls-2" points="110.98 55.98 107.89 57.76 107.89 54.19 110.98 55.98 107.89 57.76 107.89 54.19 110.98 55.98"/><g id="_Group_14" data-name="&lt;Group&gt;"><line id="_Path_76" data-name="&lt;Path&gt;" class="cls-2" x1="100.46" y1="46.09" x2="119.19" y2="46.09"/><line id="_Path_77" data-name="&lt;Path&gt;" class="cls-2" x1="121.61" y1="46.09" x2="119.99" y2="46.09"/><line id="_Path_78" data-name="&lt;Path&gt;" class="cls-2" x1="124" y1="46.09" x2="122.38" y2="46.09"/></g><g id="_Group_15" data-name="&lt;Group&gt;"><line id="_Path_79" data-name="&lt;Path&gt;" class="cls-2" x1="57.94" y1="31.64" x2="39.22" y2="31.64"/><line id="_Path_80" data-name="&lt;Path&gt;" class="cls-2" x1="36.8" y1="31.64" x2="38.42" y2="31.64"/><line id="_Path_81" data-name="&lt;Path&gt;" class="cls-2" x1="34.4" y1="31.64" x2="36.02" y2="31.64"/></g><g id="_Group_16" data-name="&lt;Group&gt;"><line id="_Path_82" data-name="&lt;Path&gt;" class="cls-2" x1="112.23" y1="9.1" x2="93.51" y2="9.1"/><line id="_Path_83" data-name="&lt;Path&gt;" class="cls-2" x1="91.09" y1="9.1" x2="92.71" y2="9.1"/><line id="_Path_84" data-name="&lt;Path&gt;" class="cls-2" x1="88.7" y1="9.1" x2="90.31" y2="9.1"/></g><g id="_Group_17" data-name="&lt;Group&gt;"><line id="_Path_85" data-name="&lt;Path&gt;" class="cls-2" x1="125.9" y1="46.09" x2="128.67" y2="46.09"/><line id="_Path_86" data-name="&lt;Path&gt;" class="cls-2" x1="127.28" y1="47.48" x2="127.28" y2="44.71"/></g><g id="_Group_18" data-name="&lt;Group&gt;"><line id="_Path_87" data-name="&lt;Path&gt;" class="cls-2" x1="46.55" y1="15.41" x2="49.32" y2="15.41"/><line id="_Path_88" data-name="&lt;Path&gt;" class="cls-2" x1="47.93" y1="16.8" x2="47.93" y2="14.03"/></g><g id="_Group_19" data-name="&lt;Group&gt;"><line id="_Path_89" data-name="&lt;Path&gt;" class="cls-2" x1="35.41" y1="52.39" x2="38.19" y2="52.39"/><line id="_Path_90" data-name="&lt;Path&gt;" class="cls-2" x1="36.8" y1="53.77" x2="36.8" y2="51"/></g><g id="_Group_20" data-name="&lt;Group&gt;"><line id="_Path_91" data-name="&lt;Path&gt;" class="cls-2" x1="93.45" y1="20.9" x2="96.22" y2="20.9"/><line id="_Path_92" data-name="&lt;Path&gt;" class="cls-2" x1="94.83" y1="22.28" x2="94.83" y2="19.51"/></g><g id="_Group_21" data-name="&lt;Group&gt;"><path id="_Compound_Path_" data-name="&lt;Compound Path&gt;" class="cls-5" d="M115.58,77.26l2-.35-.43-2.42-2,.35a4.68,4.68,0,0,0-.39-.68l1.3-1.54L114.17,71l-1.3,1.55a4.66,4.66,0,0,0-.74-.27v-2h-2.46v2a4.66,4.66,0,0,0-.73.26L107.66,71l-1.89,1.58,1.29,1.55a4.69,4.69,0,0,0-.39.68l-2-.35-.43,2.42,2,.35a4.65,4.65,0,0,0,.14.77l-1.75,1,1.23,2.13,1.75-1a4.71,4.71,0,0,0,.6.5l-.69,1.89,2.31.84.69-1.89.4,0,.39,0,.69,1.9,2.31-.84-.69-1.9a4.71,4.71,0,0,0,.61-.5l1.74,1L117.19,79l-1.75-1A4.66,4.66,0,0,0,115.58,77.26Zm-2.83-.43A1.85,1.85,0,1,1,110.91,75,1.85,1.85,0,0,1,112.76,76.84Z"/><path id="_Compound_Path_2" data-name="&lt;Compound Path&gt;" class="cls-2" d="M112.76,76.84A1.85,1.85,0,1,1,110.91,75,1.85,1.85,0,0,1,112.76,76.84Z"/></g><line id="_Path_93" data-name="&lt;Path&gt;" class="cls-2" x1="115.84" y1="38.61" x2="132.16" y2="38.61"/><line id="_Path_94" data-name="&lt;Path&gt;" class="cls-2" x1="25.83" y1="16.8" x2="42.14" y2="16.8"/><line id="_Path_95" data-name="&lt;Path&gt;" class="cls-2" x1="99.29" y1="91.11" x2="115.61" y2="91.11"/><line id="_Path_96" data-name="&lt;Path&gt;" class="cls-2" x1="7.3" y1="80.46" x2="23.62" y2="80.46"/><line id="_Path_97" data-name="&lt;Path&gt;" class="cls-2" x1="29.62" y1="80.46" x2="25.62" y2="80.46"/><line id="_Path_98" data-name="&lt;Path&gt;" class="cls-2" x1="20.04" y1="38.61" x2="45.4" y2="38.61"/><line id="_Path_99" data-name="&lt;Path&gt;" class="cls-2" y1="137.07" x2="143.77" y2="137.07"/></g></g></g></svg>